<svg width="627" height="44" viewBox="0 0 627 44" fill="none" xmlns="http://www.w3.org/2000/svg">
<rect x="1" y="1" width="449" height="42" rx="11" fill="white"/>
<rect x="1" y="1" width="449" height="42" rx="11" stroke="#D1D5DB" stroke-width="2"/>
<path d="M19.8864 28H18.4091L22.6818 16.3636H24.1364L28.4091 28H26.9318L23.4545 18.2045H23.3636L19.8864 28ZM20.4318 23.4545H26.3864V24.7045H20.4318V23.4545ZM33.3352 28.1818C32.608 28.1818 31.9659 27.9981 31.4091 27.6307C30.8523 27.2595 30.4167 26.7367 30.1023 26.0625C29.7879 25.3845 29.6307 24.5833 29.6307 23.6591C29.6307 22.7424 29.7879 21.947 30.1023 21.2727C30.4167 20.5985 30.8542 20.0777 31.4148 19.7102C31.9754 19.3428 32.6231 19.1591 33.358 19.1591C33.9261 19.1591 34.375 19.2538 34.7045 19.4432C35.0379 19.6288 35.2917 19.8409 35.4659 20.0795C35.6439 20.3144 35.7822 20.5076 35.8807 20.6591H35.9943V16.3636H37.3352V28H36.0398V26.6591H35.8807C35.7822 26.8182 35.642 27.0189 35.4602 27.2614C35.2784 27.5 35.0189 27.714 34.6818 27.9034C34.3447 28.089 33.8958 28.1818 33.3352 28.1818ZM33.517 26.9773C34.0549 26.9773 34.5095 26.8371 34.8807 26.5568C35.2519 26.2727 35.5341 25.8807 35.7273 25.3807C35.9205 24.8769 36.017 24.2955 36.017 23.6364C36.017 22.9848 35.9223 22.4148 35.733 21.9261C35.5436 21.4337 35.2633 21.0511 34.892 20.7784C34.5208 20.5019 34.0625 20.3636 33.517 20.3636C32.9489 20.3636 32.4754 20.5095 32.0966 20.8011C31.7216 21.089 31.4394 21.4811 31.25 21.9773C31.0644 22.4697 30.9716 23.0227 30.9716 23.6364C30.9716 24.2576 31.0663 24.822 31.2557 25.3295C31.4489 25.8333 31.733 26.2348 32.108 26.5341C32.4867 26.8295 32.9564 26.9773 33.517 26.9773ZM39.9773 28V19.2727H41.3182V28H39.9773ZM40.6591 17.8182C40.3977 17.8182 40.1723 17.7292 39.983 17.5511C39.7973 17.3731 39.7045 17.1591 39.7045 16.9091C39.7045 16.6591 39.7973 16.4451 39.983 16.267C40.1723 16.089 40.3977 16 40.6591 16C40.9205 16 41.1439 16.089 41.3295 16.267C41.5189 16.4451 41.6136 16.6591 41.6136 16.9091C41.6136 17.1591 41.5189 17.3731 41.3295 17.5511C41.1439 17.7292 40.9205 17.8182 40.6591 17.8182ZM47.3196 28.1818C46.5014 28.1818 45.7969 27.9886 45.206 27.6023C44.6151 27.2159 44.1605 26.6837 43.8423 26.0057C43.5241 25.3277 43.3651 24.553 43.3651 23.6818C43.3651 22.7955 43.5279 22.0133 43.8537 21.3352C44.1832 20.6534 44.6416 20.1212 45.2287 19.7386C45.8196 19.3523 46.509 19.1591 47.2969 19.1591C47.9105 19.1591 48.4635 19.2727 48.956 19.5C49.4484 19.7273 49.8518 20.0455 50.1662 20.4545C50.4806 20.8636 50.6757 21.3409 50.7514 21.8864H49.4105C49.3082 21.4886 49.081 21.1364 48.7287 20.8295C48.3802 20.5189 47.9105 20.3636 47.3196 20.3636C46.7969 20.3636 46.3385 20.5 45.9446 20.7727C45.5545 21.0417 45.2495 21.4223 45.0298 21.9148C44.8139 22.4034 44.706 22.9773 44.706 23.6364C44.706 24.3106 44.812 24.8977 45.0241 25.3977C45.2401 25.8977 45.5431 26.286 45.9332 26.5625C46.3272 26.839 46.7893 26.9773 47.3196 26.9773C47.6681 26.9773 47.9844 26.9167 48.2685 26.7955C48.5526 26.6742 48.7931 26.5 48.9901 26.2727C49.187 26.0455 49.3272 25.7727 49.4105 25.4545H50.7514C50.6757 25.9697 50.4882 26.4337 50.1889 26.8466C49.8935 27.2557 49.5014 27.5814 49.0128 27.8239C48.5279 28.0625 47.9635 28.1818 47.3196 28.1818ZM52.7116 28V19.2727H54.0526V28H52.7116ZM53.3935 17.8182C53.1321 17.8182 52.9067 17.7292 52.7173 17.5511C52.5317 17.3731 52.4389 17.1591 52.4389 16.9091C52.4389 16.6591 52.5317 16.4451 52.7173 16.267C52.9067 16.089 53.1321 16 53.3935 16C53.6548 16 53.8783 16.089 54.0639 16.267C54.2533 16.4451 54.348 16.6591 54.348 16.9091C54.348 17.1591 54.2533 17.3731 54.0639 17.5511C53.8783 17.7292 53.6548 17.8182 53.3935 17.8182ZM60.054 28.1818C59.2661 28.1818 58.5748 27.9943 57.9801 27.6193C57.3892 27.2443 56.9271 26.7197 56.5938 26.0455C56.2642 25.3712 56.0994 24.5833 56.0994 23.6818C56.0994 22.7727 56.2642 21.9792 56.5938 21.3011C56.9271 20.6231 57.3892 20.0966 57.9801 19.7216C58.5748 19.3466 59.2661 19.1591 60.054 19.1591C60.8419 19.1591 61.5313 19.3466 62.1222 19.7216C62.7169 20.0966 63.179 20.6231 63.5085 21.3011C63.8419 21.9792 64.0085 22.7727 64.0085 23.6818C64.0085 24.5833 63.8419 25.3712 63.5085 26.0455C63.179 26.7197 62.7169 27.2443 62.1222 27.6193C61.5313 27.9943 60.8419 28.1818 60.054 28.1818ZM60.054 26.9773C60.6525 26.9773 61.1449 26.8239 61.5312 26.517C61.9176 26.2102 62.2036 25.8068 62.3892 25.3068C62.5748 24.8068 62.6676 24.2652 62.6676 23.6818C62.6676 23.0985 62.5748 22.5549 62.3892 22.0511C62.2036 21.5473 61.9176 21.1402 61.5312 20.8295C61.1449 20.5189 60.6525 20.3636 60.054 20.3636C59.4555 20.3636 58.9631 20.5189 58.5767 20.8295C58.1903 21.1402 57.9044 21.5473 57.7188 22.0511C57.5331 22.5549 57.4403 23.0985 57.4403 23.6818C57.4403 24.2652 57.5331 24.8068 57.7188 25.3068C57.9044 25.8068 58.1903 26.2102 58.5767 26.517C58.9631 26.8239 59.4555 26.9773 60.054 26.9773ZM67.3963 22.75V28H66.0554V19.2727H67.3509V20.6364H67.4645C67.669 20.1932 67.9796 19.8371 68.3963 19.5682C68.813 19.2955 69.3509 19.1591 70.0099 19.1591C70.6009 19.1591 71.1179 19.2803 71.5611 19.5227C72.0043 19.7614 72.349 20.125 72.5952 20.6136C72.8414 21.0985 72.9645 21.7121 72.9645 22.4545V28H71.6236V22.5455C71.6236 21.8598 71.4455 21.3258 71.0895 20.9432C70.7334 20.5568 70.2448 20.3636 69.6236 20.3636C69.1955 20.3636 68.813 20.4564 68.4759 20.642C68.1425 20.8277 67.8793 21.0985 67.6861 21.4545C67.4929 21.8106 67.3963 22.2424 67.3963 22.75ZM79.0739 28.1818C78.233 28.1818 77.5076 27.9962 76.8977 27.625C76.2917 27.25 75.8239 26.7273 75.4943 26.0568C75.1686 25.3826 75.0057 24.5985 75.0057 23.7045C75.0057 22.8106 75.1686 22.0227 75.4943 21.3409C75.8239 20.6553 76.2822 20.1212 76.8693 19.7386C77.4602 19.3523 78.1496 19.1591 78.9375 19.1591C79.392 19.1591 79.8409 19.2348 80.2841 19.3864C80.7273 19.5379 81.1307 19.7841 81.4943 20.125C81.858 20.4621 82.1477 20.9091 82.3636 21.4659C82.5795 22.0227 82.6875 22.7083 82.6875 23.5227V24.0909H75.9602V22.9318H81.3239C81.3239 22.4394 81.2254 22 81.0284 21.6136C80.8352 21.2273 80.5587 20.9223 80.1989 20.6989C79.8428 20.4754 79.4223 20.3636 78.9375 20.3636C78.4034 20.3636 77.9413 20.4962 77.5511 20.7614C77.1648 21.0227 76.8674 21.3636 76.6591 21.7841C76.4508 22.2045 76.3466 22.6553 76.3466 23.1364V23.9091C76.3466 24.5682 76.4602 25.1269 76.6875 25.5852C76.9186 26.0398 77.2386 26.3864 77.6477 26.625C78.0568 26.8598 78.5322 26.9773 79.0739 26.9773C79.4261 26.9773 79.7443 26.928 80.0284 26.8295C80.3163 26.7273 80.5644 26.5758 80.7727 26.375C80.9811 26.1705 81.142 25.9167 81.2557 25.6136L82.5511 25.9773C82.4148 26.4167 82.1856 26.803 81.8636 27.1364C81.5417 27.4659 81.1439 27.7235 80.6705 27.9091C80.197 28.0909 79.6648 28.1818 79.0739 28.1818ZM94.7273 24.4318V19.2727H96.0682V28H94.7273V26.5227H94.6364C94.4318 26.9659 94.1136 27.3428 93.6818 27.6534C93.25 27.9602 92.7045 28.1136 92.0455 28.1136C91.5 28.1136 91.0152 27.9943 90.5909 27.7557C90.1667 27.5133 89.8333 27.1496 89.5909 26.6648C89.3485 26.1761 89.2273 25.5606 89.2273 24.8182V19.2727H90.5682V24.7273C90.5682 25.3636 90.7462 25.8712 91.1023 26.25C91.4621 26.6288 91.9205 26.8182 92.4773 26.8182C92.8106 26.8182 93.1496 26.733 93.4943 26.5625C93.8428 26.392 94.1345 26.1307 94.3693 25.7784C94.608 25.4261 94.7273 24.9773 94.7273 24.4318ZM98.5241 28V19.2727H99.8196V20.6364H99.9332C100.115 20.1705 100.409 19.8087 100.814 19.5511C101.219 19.2898 101.706 19.1591 102.274 19.1591C102.85 19.1591 103.329 19.2898 103.712 19.5511C104.098 19.8087 104.399 20.1705 104.615 20.6364H104.706C104.929 20.1856 105.265 19.8277 105.712 19.5625C106.159 19.2936 106.695 19.1591 107.32 19.1591C108.1 19.1591 108.738 19.4034 109.234 19.892C109.731 20.3769 109.979 21.1326 109.979 22.1591V28H108.638V22.1591C108.638 21.5152 108.462 21.0549 108.109 20.7784C107.757 20.5019 107.342 20.3636 106.865 20.3636C106.251 20.3636 105.776 20.5492 105.439 20.9205C105.102 21.2879 104.933 21.7538 104.933 22.3182V28H103.57V22.0227C103.57 21.5265 103.409 21.1269 103.087 20.8239C102.765 20.517 102.35 20.3636 101.842 20.3636C101.494 20.3636 101.168 20.4564 100.865 20.642C100.566 20.8277 100.323 21.0852 100.138 21.4148C99.956 21.7405 99.8651 22.1174 99.8651 22.5455V28H98.5241ZM118.271 22.75V28H116.93V19.2727H118.226V20.6364H118.339C118.544 20.1932 118.855 19.8371 119.271 19.5682C119.688 19.2955 120.226 19.1591 120.885 19.1591C121.476 19.1591 121.993 19.2803 122.436 19.5227C122.879 19.7614 123.224 20.125 123.47 20.6136C123.716 21.0985 123.839 21.7121 123.839 22.4545V28H122.499V22.5455C122.499 21.8598 122.321 21.3258 121.964 20.9432C121.608 20.5568 121.12 20.3636 120.499 20.3636C120.071 20.3636 119.688 20.4564 119.351 20.642C119.018 20.8277 118.754 21.0985 118.561 21.4545C118.368 21.8106 118.271 22.2424 118.271 22.75ZM129.835 28.1818C129.047 28.1818 128.356 27.9943 127.761 27.6193C127.17 27.2443 126.708 26.7197 126.375 26.0455C126.045 25.3712 125.881 24.5833 125.881 23.6818C125.881 22.7727 126.045 21.9792 126.375 21.3011C126.708 20.6231 127.17 20.0966 127.761 19.7216C128.356 19.3466 129.047 19.1591 129.835 19.1591C130.623 19.1591 131.313 19.3466 131.903 19.7216C132.498 20.0966 132.96 20.6231 133.29 21.3011C133.623 21.9792 133.79 22.7727 133.79 23.6818C133.79 24.5833 133.623 25.3712 133.29 26.0455C132.96 26.7197 132.498 27.2443 131.903 27.6193C131.313 27.9943 130.623 28.1818 129.835 28.1818ZM129.835 26.9773C130.434 26.9773 130.926 26.8239 131.312 26.517C131.699 26.2102 131.985 25.8068 132.17 25.3068C132.356 24.8068 132.449 24.2652 132.449 23.6818C132.449 23.0985 132.356 22.5549 132.17 22.0511C131.985 21.5473 131.699 21.1402 131.312 20.8295C130.926 20.5189 130.434 20.3636 129.835 20.3636C129.237 20.3636 128.744 20.5189 128.358 20.8295C127.972 21.1402 127.686 21.5473 127.5 22.0511C127.314 22.5549 127.222 23.0985 127.222 23.6818C127.222 24.2652 127.314 24.8068 127.5 25.3068C127.686 25.8068 127.972 26.2102 128.358 26.517C128.744 26.8239 129.237 26.9773 129.835 26.9773ZM142.661 19.2727L139.433 28H138.07L134.842 19.2727H136.297L138.706 26.2273H138.797L141.206 19.2727H142.661ZM147.663 28.1818C146.875 28.1818 146.184 27.9943 145.589 27.6193C144.999 27.2443 144.536 26.7197 144.203 26.0455C143.874 25.3712 143.709 24.5833 143.709 23.6818C143.709 22.7727 143.874 21.9792 144.203 21.3011C144.536 20.6231 144.999 20.0966 145.589 19.7216C146.184 19.3466 146.875 19.1591 147.663 19.1591C148.451 19.1591 149.141 19.3466 149.732 19.7216C150.326 20.0966 150.788 20.6231 151.118 21.3011C151.451 21.9792 151.618 22.7727 151.618 23.6818C151.618 24.5833 151.451 25.3712 151.118 26.0455C150.788 26.7197 150.326 27.2443 149.732 27.6193C149.141 27.9943 148.451 28.1818 147.663 28.1818ZM147.663 26.9773C148.262 26.9773 148.754 26.8239 149.141 26.517C149.527 26.2102 149.813 25.8068 149.999 25.3068C150.184 24.8068 150.277 24.2652 150.277 23.6818C150.277 23.0985 150.184 22.5549 149.999 22.0511C149.813 21.5473 149.527 21.1402 149.141 20.8295C148.754 20.5189 148.262 20.3636 147.663 20.3636C147.065 20.3636 146.572 20.5189 146.186 20.8295C145.8 21.1402 145.514 21.5473 145.328 22.0511C145.143 22.5549 145.05 23.0985 145.05 23.6818C145.05 24.2652 145.143 24.8068 145.328 25.3068C145.514 25.8068 145.8 26.2102 146.186 26.517C146.572 26.8239 147.065 26.9773 147.663 26.9773ZM158.165 28V19.2727H159.506V28H158.165ZM158.847 17.8182C158.585 17.8182 158.36 17.7292 158.17 17.5511C157.985 17.3731 157.892 17.1591 157.892 16.9091C157.892 16.6591 157.985 16.4451 158.17 16.267C158.36 16.089 158.585 16 158.847 16C159.108 16 159.331 16.089 159.517 16.267C159.706 16.4451 159.801 16.6591 159.801 16.9091C159.801 17.1591 159.706 17.3731 159.517 17.5511C159.331 17.7292 159.108 17.8182 158.847 17.8182ZM165.757 19.2727V20.4091H161.234V19.2727H165.757ZM162.553 17.1818H163.893V25.5C163.893 25.8788 163.948 26.1629 164.058 26.3523C164.172 26.5379 164.316 26.6629 164.49 26.7273C164.668 26.7879 164.856 26.8182 165.053 26.8182C165.2 26.8182 165.321 26.8106 165.416 26.7955C165.511 26.7765 165.587 26.7614 165.643 26.75L165.916 27.9545C165.825 27.9886 165.698 28.0227 165.536 28.0568C165.373 28.0947 165.166 28.1136 164.916 28.1136C164.537 28.1136 164.166 28.0322 163.803 27.8693C163.443 27.7064 163.143 27.4583 162.905 27.125C162.67 26.7917 162.553 26.3712 162.553 25.8636V17.1818ZM171.339 28.1818C170.499 28.1818 169.773 27.9962 169.163 27.625C168.557 27.25 168.089 26.7273 167.76 26.0568C167.434 25.3826 167.271 24.5985 167.271 23.7045C167.271 22.8106 167.434 22.0227 167.76 21.3409C168.089 20.6553 168.548 20.1212 169.135 19.7386C169.726 19.3523 170.415 19.1591 171.203 19.1591C171.658 19.1591 172.107 19.2348 172.55 19.3864C172.993 19.5379 173.396 19.7841 173.76 20.125C174.124 20.4621 174.413 20.9091 174.629 21.4659C174.845 22.0227 174.953 22.7083 174.953 23.5227V24.0909H168.226V22.9318H173.589C173.589 22.4394 173.491 22 173.294 21.6136C173.101 21.2273 172.824 20.9223 172.464 20.6989C172.108 20.4754 171.688 20.3636 171.203 20.3636C170.669 20.3636 170.207 20.4962 169.817 20.7614C169.43 21.0227 169.133 21.3636 168.925 21.7841C168.716 22.2045 168.612 22.6553 168.612 23.1364V23.9091C168.612 24.5682 168.726 25.1269 168.953 25.5852C169.184 26.0398 169.504 26.3864 169.913 26.625C170.322 26.8598 170.798 26.9773 171.339 26.9773C171.692 26.9773 172.01 26.928 172.294 26.8295C172.582 26.7273 172.83 26.5758 173.038 26.375C173.247 26.1705 173.408 25.9167 173.521 25.6136L174.817 25.9773C174.68 26.4167 174.451 26.803 174.129 27.1364C173.807 27.4659 173.41 27.7235 172.936 27.9091C172.463 28.0909 171.93 28.1818 171.339 28.1818ZM176.993 28V19.2727H178.288V20.6364H178.402C178.584 20.1705 178.877 19.8087 179.283 19.5511C179.688 19.2898 180.175 19.1591 180.743 19.1591C181.319 19.1591 181.798 19.2898 182.18 19.5511C182.567 19.8087 182.868 20.1705 183.084 20.6364H183.175C183.398 20.1856 183.733 19.8277 184.18 19.5625C184.627 19.2936 185.163 19.1591 185.788 19.1591C186.569 19.1591 187.207 19.4034 187.703 19.892C188.199 20.3769 188.447 21.1326 188.447 22.1591V28H187.107V22.1591C187.107 21.5152 186.93 21.0549 186.578 20.7784C186.226 20.5019 185.811 20.3636 185.334 20.3636C184.72 20.3636 184.245 20.5492 183.908 20.9205C183.571 21.2879 183.402 21.7538 183.402 22.3182V28H182.038V22.0227C182.038 21.5265 181.877 21.1269 181.555 20.8239C181.233 20.517 180.819 20.3636 180.311 20.3636C179.963 20.3636 179.637 20.4564 179.334 20.642C179.035 20.8277 178.792 21.0852 178.607 21.4148C178.425 21.7405 178.334 22.1174 178.334 22.5455V28H176.993Z" fill="#9CA3AF"/>
<g clip-path="url(#clip0_3124_689)">
<rect x="467" width="160" height="44" rx="12" fill="#CA3884"/>
<path d="M493.665 28H491.415L495.512 16.3636H498.114L502.217 28H499.967L496.859 18.75H496.768L493.665 28ZM493.739 23.4375H499.876V25.1307H493.739V23.4375ZM506.631 28.1534C505.946 28.1534 505.332 27.9773 504.79 27.625C504.249 27.2727 503.821 26.7614 503.506 26.0909C503.192 25.4205 503.035 24.6061 503.035 23.6477C503.035 22.678 503.194 21.8598 503.512 21.1932C503.834 20.5227 504.268 20.017 504.813 19.6761C505.359 19.3314 505.967 19.1591 506.637 19.1591C507.148 19.1591 507.569 19.2462 507.898 19.4205C508.228 19.5909 508.489 19.7973 508.683 20.0398C508.876 20.2784 509.025 20.5038 509.131 20.7159H509.217V16.3636H511.279V28H509.256V26.625H509.131C509.025 26.8371 508.872 27.0625 508.671 27.3011C508.47 27.536 508.205 27.7367 507.876 27.9034C507.546 28.0701 507.131 28.1534 506.631 28.1534ZM507.205 26.4659C507.641 26.4659 508.012 26.3485 508.319 26.1136C508.626 25.875 508.859 25.5436 509.018 25.1193C509.177 24.6951 509.256 24.2008 509.256 23.6364C509.256 23.072 509.177 22.5814 509.018 22.1648C508.862 21.7481 508.631 21.4242 508.325 21.1932C508.022 20.9621 507.648 20.8466 507.205 20.8466C506.747 20.8466 506.364 20.9659 506.058 21.2045C505.751 21.4432 505.52 21.7727 505.364 22.1932C505.209 22.6136 505.131 23.0947 505.131 23.6364C505.131 24.1818 505.209 24.6686 505.364 25.0966C505.523 25.5208 505.756 25.8561 506.063 26.1023C506.374 26.3447 506.754 26.4659 507.205 26.4659ZM513.471 28V19.2727H515.528V28H513.471ZM514.505 18.0341C514.179 18.0341 513.899 17.9261 513.664 17.7102C513.429 17.4905 513.312 17.2273 513.312 16.9205C513.312 16.6098 513.429 16.3466 513.664 16.1307C513.899 15.911 514.179 15.8011 514.505 15.8011C514.835 15.8011 515.115 15.911 515.346 16.1307C515.581 16.3466 515.698 16.6098 515.698 16.9205C515.698 17.2273 515.581 17.4905 515.346 17.7102C515.115 17.9261 514.835 18.0341 514.505 18.0341ZM521.45 28.1705C520.578 28.1705 519.83 27.9792 519.205 27.5966C518.584 27.214 518.105 26.6856 517.768 26.0114C517.434 25.3333 517.268 24.553 517.268 23.6705C517.268 22.7841 517.438 22.0019 517.779 21.3239C518.12 20.642 518.601 20.1117 519.222 19.733C519.847 19.3504 520.586 19.1591 521.438 19.1591C522.147 19.1591 522.773 19.2898 523.319 19.5511C523.868 19.8087 524.306 20.1742 524.631 20.6477C524.957 21.1174 525.143 21.6667 525.188 22.2955H523.222C523.143 21.875 522.953 21.5246 522.654 21.2443C522.359 20.9602 521.963 20.8182 521.467 20.8182C521.046 20.8182 520.677 20.9318 520.359 21.1591C520.04 21.3826 519.792 21.7045 519.614 22.125C519.44 22.5455 519.353 23.0492 519.353 23.6364C519.353 24.2311 519.44 24.7424 519.614 25.1705C519.789 25.5947 520.033 25.9223 520.347 26.1534C520.665 26.3807 521.039 26.4943 521.467 26.4943C521.77 26.4943 522.04 26.4375 522.279 26.3239C522.522 26.2064 522.724 26.0379 522.887 25.8182C523.05 25.5985 523.162 25.3314 523.222 25.017H525.188C525.139 25.6345 524.957 26.1818 524.643 26.6591C524.328 27.1326 523.9 27.5038 523.359 27.7727C522.817 28.0379 522.181 28.1705 521.45 28.1705ZM526.877 28V19.2727H528.934V28H526.877ZM527.911 18.0341C527.585 18.0341 527.305 17.9261 527.07 17.7102C526.835 17.4905 526.718 17.2273 526.718 16.9205C526.718 16.6098 526.835 16.3466 527.07 16.1307C527.305 15.911 527.585 15.8011 527.911 15.8011C528.241 15.8011 528.521 15.911 528.752 16.1307C528.987 16.3466 529.104 16.6098 529.104 16.9205C529.104 17.2273 528.987 17.4905 528.752 17.7102C528.521 17.9261 528.241 18.0341 527.911 18.0341ZM534.856 28.1705C534.004 28.1705 533.265 27.983 532.64 27.608C532.015 27.233 531.53 26.7083 531.185 26.0341C530.844 25.3598 530.674 24.572 530.674 23.6705C530.674 22.7689 530.844 21.9792 531.185 21.3011C531.53 20.6231 532.015 20.0966 532.64 19.7216C533.265 19.3466 534.004 19.1591 534.856 19.1591C535.708 19.1591 536.447 19.3466 537.072 19.7216C537.697 20.0966 538.18 20.6231 538.521 21.3011C538.865 21.9792 539.038 22.7689 539.038 23.6705C539.038 24.572 538.865 25.3598 538.521 26.0341C538.18 26.7083 537.697 27.233 537.072 27.608C536.447 27.983 535.708 28.1705 534.856 28.1705ZM534.867 26.5227C535.329 26.5227 535.716 26.3958 536.026 26.142C536.337 25.8845 536.568 25.5398 536.719 25.108C536.875 24.6761 536.952 24.1951 536.952 23.6648C536.952 23.1307 536.875 22.6477 536.719 22.2159C536.568 21.7803 536.337 21.4337 536.026 21.1761C535.716 20.9186 535.329 20.7898 534.867 20.7898C534.394 20.7898 534 20.9186 533.685 21.1761C533.375 21.4337 533.142 21.7803 532.987 22.2159C532.835 22.6477 532.759 23.1307 532.759 23.6648C532.759 24.1951 532.835 24.6761 532.987 25.108C533.142 25.5398 533.375 25.8845 533.685 26.142C534 26.3958 534.394 26.5227 534.867 26.5227ZM542.84 22.8864V28H540.783V19.2727H542.749V20.7557H542.852C543.052 20.267 543.372 19.8788 543.812 19.5909C544.255 19.303 544.802 19.1591 545.454 19.1591C546.056 19.1591 546.581 19.2879 547.028 19.5455C547.478 19.803 547.827 20.1761 548.073 20.6648C548.323 21.1534 548.446 21.7462 548.442 22.4432V28H546.386V22.7614C546.386 22.178 546.234 21.7216 545.931 21.392C545.632 21.0625 545.217 20.8977 544.687 20.8977C544.327 20.8977 544.007 20.9773 543.727 21.1364C543.45 21.2917 543.232 21.517 543.073 21.8125C542.918 22.108 542.84 22.4659 542.84 22.8864ZM553.045 28.1761C552.492 28.1761 551.994 28.0777 551.55 27.8807C551.111 27.6799 550.763 27.3845 550.505 26.9943C550.251 26.6042 550.124 26.1231 550.124 25.5511C550.124 25.0587 550.215 24.6515 550.397 24.3295C550.579 24.0076 550.827 23.75 551.141 23.5568C551.456 23.3636 551.81 23.2178 552.204 23.1193C552.602 23.017 553.013 22.9432 553.437 22.8977C553.948 22.8447 554.363 22.7973 554.681 22.7557C554.999 22.7102 555.23 22.642 555.374 22.5511C555.522 22.4564 555.596 22.3106 555.596 22.1136V22.0795C555.596 21.6515 555.469 21.3201 555.215 21.0852C554.961 20.8504 554.596 20.733 554.119 20.733C553.615 20.733 553.215 20.8428 552.92 21.0625C552.628 21.2822 552.431 21.5417 552.329 21.8409L550.408 21.5682C550.56 21.0379 550.81 20.5947 551.158 20.2386C551.507 19.8788 551.933 19.6098 552.437 19.4318C552.941 19.25 553.497 19.1591 554.107 19.1591C554.528 19.1591 554.946 19.2083 555.363 19.3068C555.78 19.4053 556.16 19.5682 556.505 19.7955C556.85 20.0189 557.126 20.3239 557.335 20.7102C557.547 21.0966 557.653 21.5795 557.653 22.1591V28H555.675V26.8011H555.607C555.482 27.0436 555.306 27.2708 555.079 27.483C554.855 27.6913 554.573 27.8598 554.232 27.9886C553.895 28.1136 553.499 28.1761 553.045 28.1761ZM553.579 26.6648C553.992 26.6648 554.35 26.5833 554.653 26.4205C554.956 26.2538 555.189 26.0341 555.352 25.7614C555.518 25.4886 555.602 25.1913 555.602 24.8693V23.8409C555.537 23.8939 555.427 23.9432 555.272 23.9886C555.121 24.0341 554.95 24.0739 554.761 24.108C554.571 24.142 554.384 24.1723 554.198 24.1989C554.013 24.2254 553.852 24.2481 553.715 24.267C553.408 24.3087 553.134 24.3769 552.891 24.4716C552.649 24.5663 552.458 24.6989 552.317 24.8693C552.177 25.036 552.107 25.2519 552.107 25.517C552.107 25.8958 552.246 26.1818 552.522 26.375C552.799 26.5682 553.151 26.6648 553.579 26.6648ZM559.721 28V19.2727H561.715V20.7273H561.806C561.965 20.2235 562.238 19.8352 562.624 19.5625C563.014 19.286 563.46 19.1477 563.96 19.1477C564.073 19.1477 564.2 19.1534 564.34 19.1648C564.484 19.1723 564.603 19.1856 564.698 19.2045V21.0966C564.611 21.0663 564.473 21.0398 564.283 21.017C564.098 20.9905 563.918 20.9773 563.744 20.9773C563.369 20.9773 563.031 21.0587 562.732 21.2216C562.437 21.3807 562.204 21.6023 562.033 21.8864C561.863 22.1705 561.778 22.4981 561.778 22.8693V28H559.721ZM570.033 28V19.2727H572.09V28H570.033ZM571.067 18.0341C570.742 18.0341 570.461 17.9261 570.227 17.7102C569.992 17.4905 569.874 17.2273 569.874 16.9205C569.874 16.6098 569.992 16.3466 570.227 16.1307C570.461 15.911 570.742 15.8011 571.067 15.8011C571.397 15.8011 571.677 15.911 571.908 16.1307C572.143 16.3466 572.261 16.6098 572.261 16.9205C572.261 17.2273 572.143 17.4905 571.908 17.7102C571.677 17.9261 571.397 18.0341 571.067 18.0341ZM578.563 19.2727V20.8636H573.546V19.2727H578.563ZM574.785 17.1818H576.842V25.375C576.842 25.6515 576.883 25.8636 576.967 26.0114C577.054 26.1553 577.167 26.2538 577.308 26.3068C577.448 26.3598 577.603 26.3864 577.773 26.3864C577.902 26.3864 578.02 26.3769 578.126 26.358C578.236 26.339 578.319 26.322 578.376 26.3068L578.722 27.9148C578.612 27.9527 578.455 27.9943 578.251 28.0398C578.05 28.0852 577.804 28.1117 577.512 28.1193C576.997 28.1345 576.533 28.0568 576.12 27.8864C575.707 27.7121 575.379 27.4432 575.137 27.0795C574.898 26.7159 574.781 26.2614 574.785 25.7159V17.1818ZM584.053 28.1705C583.178 28.1705 582.423 27.9886 581.786 27.625C581.154 27.2576 580.667 26.7386 580.326 26.0682C579.985 25.3939 579.815 24.6004 579.815 23.6875C579.815 22.7898 579.985 22.0019 580.326 21.3239C580.671 20.642 581.152 20.1117 581.769 19.733C582.387 19.3504 583.112 19.1591 583.945 19.1591C584.483 19.1591 584.991 19.2462 585.468 19.4205C585.949 19.5909 586.373 19.8561 586.741 20.2159C587.112 20.5758 587.404 21.0341 587.616 21.5909C587.828 22.1439 587.934 22.803 587.934 23.5682V24.1989H580.781V22.8125H585.962C585.959 22.4186 585.873 22.0682 585.707 21.7614C585.54 21.4508 585.307 21.2064 585.008 21.0284C584.712 20.8504 584.368 20.7614 583.974 20.7614C583.553 20.7614 583.184 20.8636 582.866 21.0682C582.548 21.2689 582.299 21.5341 582.121 21.8636C581.947 22.1894 581.858 22.5473 581.854 22.9375V24.1477C581.854 24.6553 581.947 25.0909 582.133 25.4545C582.318 25.8144 582.578 26.0909 582.911 26.2841C583.245 26.4735 583.635 26.5682 584.082 26.5682C584.381 26.5682 584.652 26.5265 584.894 26.4432C585.137 26.3561 585.347 26.2292 585.525 26.0625C585.703 25.8958 585.837 25.6894 585.928 25.4432L587.849 25.6591C587.728 26.1667 587.496 26.6098 587.156 26.9886C586.818 27.3636 586.387 27.6553 585.86 27.8636C585.334 28.0682 584.731 28.1705 584.053 28.1705ZM589.674 28V19.2727H591.64V20.7557H591.742C591.924 20.2557 592.225 19.8655 592.646 19.5852C593.066 19.3011 593.568 19.1591 594.151 19.1591C594.742 19.1591 595.24 19.303 595.646 19.5909C596.055 19.875 596.343 20.2633 596.509 20.7557H596.6C596.793 20.2708 597.119 19.8845 597.577 19.5966C598.04 19.3049 598.587 19.1591 599.219 19.1591C600.022 19.1591 600.678 19.4129 601.185 19.9205C601.693 20.428 601.947 21.1686 601.947 22.142V28H599.884V22.4602C599.884 21.9186 599.74 21.5227 599.452 21.2727C599.165 21.0189 598.812 20.892 598.396 20.892C597.899 20.892 597.511 21.0473 597.231 21.358C596.954 21.6648 596.816 22.0644 596.816 22.5568V28H594.799V22.375C594.799 21.9242 594.663 21.5644 594.39 21.2955C594.121 21.0265 593.769 20.892 593.333 20.892C593.038 20.892 592.769 20.9678 592.526 21.1193C592.284 21.267 592.091 21.4773 591.947 21.75C591.803 22.0189 591.731 22.3333 591.731 22.6932V28H589.674Z" fill="white"/>
</g>
<defs>
<clipPath id="clip0_3124_689">
<rect x="467" width="160" height="44" rx="12" fill="white"/>
</clipPath>
</defs>
</svg>
