<svg width="627" height="232" viewBox="0 0 627 232" fill="none" xmlns="http://www.w3.org/2000/svg">
<path d="M0 19.2C0 12.4794 0 9.11905 1.30792 6.55211C2.4584 4.29417 4.29417 2.4584 6.55211 1.30792C9.11905 0 12.4794 0 19.2 0H607.8C614.521 0 617.881 0 620.448 1.30792C622.706 2.4584 624.542 4.29417 625.692 6.55211C627 9.11905 627 12.4794 627 19.2V29.8C627 36.5206 627 39.8809 625.692 42.4479C624.542 44.7058 622.706 46.5416 620.448 47.6921C617.881 49 614.521 49 607.8 49H19.2C12.4794 49 9.11905 49 6.55211 47.6921C4.29417 46.5416 2.4584 44.7058 1.30792 42.4479C0 39.8809 0 36.5206 0 29.8V19.2Z" fill="white"/>
<rect x="12.5" y="17" width="15" height="15" rx="5.5" fill="white"/>
<rect x="12.5" y="17" width="15" height="15" rx="5.5" stroke="#D1D5DB"/>
<path d="M41.2784 30V18.3636H45.4261C46.3314 18.3636 47.0814 18.5284 47.6761 18.858C48.2708 19.1875 48.7159 19.6383 49.0114 20.2102C49.3068 20.7784 49.4545 21.4186 49.4545 22.1307C49.4545 22.8466 49.3049 23.4905 49.0057 24.0625C48.7102 24.6307 48.2633 25.0814 47.6648 25.4148C47.0701 25.7443 46.322 25.9091 45.4205 25.9091H42.5682V24.4205H45.2614C45.8333 24.4205 46.2973 24.322 46.6534 24.125C47.0095 23.9242 47.2708 23.6515 47.4375 23.3068C47.6042 22.9621 47.6875 22.5701 47.6875 22.1307C47.6875 21.6913 47.6042 21.3011 47.4375 20.9602C47.2708 20.6193 47.0076 20.3523 46.6477 20.1591C46.2917 19.9659 45.822 19.8693 45.2386 19.8693H43.0341V30H41.2784ZM53.8381 30.1932C53.285 30.1932 52.785 30.0909 52.3381 29.8864C51.8911 29.678 51.5369 29.3769 51.2756 28.983C51.018 28.589 50.8892 28.1061 50.8892 27.5341C50.8892 27.0417 50.9839 26.6364 51.1733 26.3182C51.3627 26 51.6184 25.7481 51.9403 25.5625C52.2623 25.3769 52.6222 25.2367 53.0199 25.142C53.4176 25.0473 53.8229 24.9754 54.2358 24.9261C54.7585 24.8655 55.1828 24.8163 55.5085 24.7784C55.8343 24.7367 56.071 24.6705 56.2188 24.5795C56.3665 24.4886 56.4403 24.3409 56.4403 24.1364V24.0966C56.4403 23.6004 56.3002 23.2159 56.0199 22.9432C55.7434 22.6705 55.3305 22.5341 54.7812 22.5341C54.2093 22.5341 53.7585 22.661 53.429 22.9148C53.1032 23.1648 52.8778 23.4432 52.7528 23.75L51.1562 23.3864C51.3456 22.8561 51.6222 22.428 51.9858 22.1023C52.3532 21.7727 52.7756 21.5341 53.2528 21.3864C53.7301 21.2348 54.232 21.1591 54.7585 21.1591C55.107 21.1591 55.4763 21.2008 55.8665 21.2841C56.2604 21.3636 56.6278 21.5114 56.9688 21.7273C57.3134 21.9432 57.5956 22.2519 57.8153 22.6534C58.035 23.0511 58.1449 23.5682 58.1449 24.2045V30H56.4858V28.8068H56.4176C56.3078 29.0265 56.143 29.2424 55.9233 29.4545C55.7036 29.6667 55.4214 29.8428 55.0767 29.983C54.732 30.1231 54.3191 30.1932 53.8381 30.1932ZM54.2074 28.8295C54.6771 28.8295 55.0786 28.7367 55.4119 28.5511C55.7491 28.3655 56.0047 28.1231 56.179 27.8239C56.357 27.5208 56.446 27.197 56.446 26.8523V25.7273C56.3854 25.7879 56.268 25.8447 56.0938 25.8977C55.9233 25.947 55.7282 25.9905 55.5085 26.0284C55.2888 26.0625 55.0748 26.0947 54.8665 26.125C54.6581 26.1515 54.4839 26.1742 54.3438 26.1932C54.0142 26.2348 53.7131 26.3049 53.4403 26.4034C53.1714 26.5019 52.9555 26.6439 52.7926 26.8295C52.6335 27.0114 52.554 27.2538 52.554 27.5568C52.554 27.9773 52.7093 28.2955 53.0199 28.5114C53.3305 28.7235 53.7263 28.8295 54.2074 28.8295ZM53.1392 20.2159L51.9972 20.1818C51.9972 19.553 52.1657 19.0511 52.5028 18.6761C52.8438 18.3011 53.2642 18.1136 53.7642 18.1136C53.9953 18.1136 54.1979 18.1534 54.3722 18.233C54.5464 18.3087 54.7093 18.3977 54.8608 18.5C55.0161 18.5985 55.1695 18.6875 55.321 18.767C55.4763 18.8428 55.6487 18.8807 55.8381 18.8807C56.0578 18.8807 56.2358 18.7973 56.3722 18.6307C56.5123 18.464 56.5824 18.2576 56.5824 18.0114L57.7017 18.0852C57.7017 18.7178 57.5313 19.2159 57.1903 19.5795C56.8494 19.9394 56.4309 20.1212 55.9347 20.125C55.6657 20.125 55.4422 20.0871 55.2642 20.0114C55.09 19.9318 54.9347 19.8428 54.7983 19.7443C54.6619 19.642 54.5218 19.5511 54.3778 19.4716C54.2339 19.392 54.0616 19.3523 53.8608 19.3523C53.6487 19.3523 53.4744 19.4356 53.3381 19.6023C53.2055 19.7652 53.1392 19.9697 53.1392 20.2159ZM64.0838 30.1761C63.2656 30.1761 62.5516 29.9886 61.9418 29.6136C61.3319 29.2386 60.8584 28.714 60.5213 28.0398C60.1842 27.3655 60.0156 26.5777 60.0156 25.6761C60.0156 24.7708 60.1842 23.9792 60.5213 23.3011C60.8584 22.6231 61.3319 22.0966 61.9418 21.7216C62.5516 21.3466 63.2656 21.1591 64.0838 21.1591C64.902 21.1591 65.616 21.3466 66.2259 21.7216C66.8357 22.0966 67.3092 22.6231 67.6463 23.3011C67.9834 23.9792 68.152 24.7708 68.152 25.6761C68.152 26.5777 67.9834 27.3655 67.6463 28.0398C67.3092 28.714 66.8357 29.2386 66.2259 29.6136C65.616 29.9886 64.902 30.1761 64.0838 30.1761ZM64.0895 28.75C64.6198 28.75 65.0592 28.6098 65.4077 28.3295C65.7562 28.0492 66.0137 27.6761 66.1804 27.2102C66.3509 26.7443 66.4361 26.2311 66.4361 25.6705C66.4361 25.1136 66.3509 24.6023 66.1804 24.1364C66.0137 23.6667 65.7562 23.2898 65.4077 23.0057C65.0592 22.7216 64.6198 22.5795 64.0895 22.5795C63.5554 22.5795 63.1122 22.7216 62.7599 23.0057C62.4115 23.2898 62.152 23.6667 61.9815 24.1364C61.8149 24.6023 61.7315 25.1136 61.7315 25.6705C61.7315 26.2311 61.8149 26.7443 61.9815 27.2102C62.152 27.6761 62.4115 28.0492 62.7599 28.3295C63.1122 28.6098 63.5554 28.75 64.0895 28.75ZM77.5497 30.1705C76.8452 30.1705 76.2164 29.9905 75.6634 29.6307C75.1141 29.267 74.6823 28.75 74.3679 28.0795C74.0573 27.4053 73.902 26.5966 73.902 25.6534C73.902 24.7102 74.0592 23.9034 74.3736 23.233C74.6918 22.5625 75.1274 22.0492 75.6804 21.6932C76.2334 21.3371 76.8603 21.1591 77.5611 21.1591C78.1027 21.1591 78.5384 21.25 78.8679 21.4318C79.2012 21.6098 79.4588 21.8182 79.6406 22.0568C79.8262 22.2955 79.9702 22.5057 80.0724 22.6875H80.1747V18.3636H81.8736V30H80.2145V28.642H80.0724C79.9702 28.8277 79.8224 29.0398 79.6293 29.2784C79.4399 29.517 79.1785 29.7254 78.8452 29.9034C78.5118 30.0814 78.08 30.1705 77.5497 30.1705ZM77.9247 28.7216C78.4134 28.7216 78.8262 28.5928 79.1634 28.3352C79.5043 28.0739 79.7618 27.7121 79.9361 27.25C80.1141 26.7879 80.2031 26.25 80.2031 25.6364C80.2031 25.0303 80.116 24.5 79.9418 24.0455C79.7675 23.5909 79.5118 23.2367 79.1747 22.983C78.8376 22.7292 78.4209 22.6023 77.9247 22.6023C77.4134 22.6023 76.9872 22.7348 76.6463 23C76.3054 23.2652 76.0478 23.6269 75.8736 24.0852C75.7031 24.5436 75.6179 25.0606 75.6179 25.6364C75.6179 26.2197 75.705 26.7443 75.8793 27.2102C76.0535 27.6761 76.3111 28.0455 76.652 28.3182C76.9967 28.5871 77.4209 28.7216 77.9247 28.7216ZM88.0597 30.1761C87.1998 30.1761 86.4593 29.9924 85.8381 29.625C85.2206 29.2538 84.7434 28.733 84.4062 28.0625C84.0729 27.3883 83.9062 26.5985 83.9062 25.6932C83.9062 24.7992 84.0729 24.0114 84.4062 23.3295C84.7434 22.6477 85.2131 22.1155 85.8153 21.733C86.4214 21.3504 87.1297 21.1591 87.9403 21.1591C88.4328 21.1591 88.91 21.2405 89.3722 21.4034C89.8343 21.5663 90.2491 21.822 90.6165 22.1705C90.9839 22.5189 91.2737 22.9716 91.4858 23.5284C91.6979 24.0814 91.804 24.7538 91.804 25.5455V26.1477H84.8665V24.875H90.1392C90.1392 24.428 90.0483 24.0322 89.8665 23.6875C89.6847 23.339 89.429 23.0644 89.0994 22.8636C88.7737 22.6629 88.3911 22.5625 87.9517 22.5625C87.4744 22.5625 87.0578 22.6799 86.7017 22.9148C86.3494 23.1458 86.0767 23.4489 85.8835 23.8239C85.6941 24.1951 85.5994 24.5985 85.5994 25.0341V26.0284C85.5994 26.6117 85.7017 27.108 85.9062 27.517C86.1146 27.9261 86.4044 28.2386 86.7756 28.4545C87.1468 28.6667 87.5805 28.7727 88.0767 28.7727C88.3987 28.7727 88.6922 28.7273 88.9574 28.6364C89.2225 28.5417 89.4517 28.4015 89.6449 28.2159C89.8381 28.0303 89.9858 27.8011 90.0881 27.5284L91.696 27.8182C91.5672 28.2917 91.3362 28.7064 91.0028 29.0625C90.6733 29.4148 90.2585 29.6894 89.7585 29.8864C89.2623 30.0795 88.696 30.1761 88.0597 30.1761ZM102.077 21.2727V22.6364H97.1449V21.2727H102.077ZM98.4972 30V20.2614C98.4972 19.7159 98.6165 19.2633 98.8551 18.9034C99.0938 18.5398 99.41 18.2689 99.804 18.0909C100.198 17.9091 100.626 17.8182 101.088 17.8182C101.429 17.8182 101.721 17.8466 101.963 17.9034C102.205 17.9564 102.385 18.0057 102.503 18.0511L102.105 19.4261C102.026 19.4034 101.923 19.3769 101.798 19.3466C101.673 19.3125 101.522 19.2955 101.344 19.2955C100.931 19.2955 100.635 19.3977 100.457 19.6023C100.283 19.8068 100.196 20.1023 100.196 20.4886V30H98.4972ZM107.162 30.1761C106.344 30.1761 105.63 29.9886 105.02 29.6136C104.41 29.2386 103.937 28.714 103.599 28.0398C103.262 27.3655 103.094 26.5777 103.094 25.6761C103.094 24.7708 103.262 23.9792 103.599 23.3011C103.937 22.6231 104.41 22.0966 105.02 21.7216C105.63 21.3466 106.344 21.1591 107.162 21.1591C107.98 21.1591 108.694 21.3466 109.304 21.7216C109.914 22.0966 110.387 22.6231 110.724 23.3011C111.062 23.9792 111.23 24.7708 111.23 25.6761C111.23 26.5777 111.062 27.3655 110.724 28.0398C110.387 28.714 109.914 29.2386 109.304 29.6136C108.694 29.9886 107.98 30.1761 107.162 30.1761ZM107.168 28.75C107.698 28.75 108.137 28.6098 108.486 28.3295C108.834 28.0492 109.092 27.6761 109.259 27.2102C109.429 26.7443 109.514 26.2311 109.514 25.6705C109.514 25.1136 109.429 24.6023 109.259 24.1364C109.092 23.6667 108.834 23.2898 108.486 23.0057C108.137 22.7216 107.698 22.5795 107.168 22.5795C106.634 22.5795 106.19 22.7216 105.838 23.0057C105.49 23.2898 105.23 23.6667 105.06 24.1364C104.893 24.6023 104.81 25.1136 104.81 25.6705C104.81 26.2311 104.893 26.7443 105.06 27.2102C105.23 27.6761 105.49 28.0492 105.838 28.3295C106.19 28.6098 106.634 28.75 107.168 28.75ZM113.126 30V21.2727H114.768V22.6591H114.859C115.018 22.1894 115.299 21.8201 115.7 21.5511C116.106 21.2784 116.564 21.142 117.075 21.142C117.181 21.142 117.306 21.1458 117.45 21.1534C117.598 21.161 117.714 21.1705 117.797 21.1818V22.8068C117.729 22.7879 117.607 22.767 117.433 22.7443C117.259 22.7178 117.085 22.7045 116.911 22.7045C116.509 22.7045 116.151 22.7898 115.837 22.9602C115.526 23.1269 115.28 23.3598 115.098 23.6591C114.916 23.9545 114.825 24.2917 114.825 24.6705V30H113.126ZM119.267 30V21.2727H120.898V22.6932H121.006C121.188 22.2121 121.485 21.8371 121.898 21.5682C122.311 21.2955 122.805 21.1591 123.381 21.1591C123.964 21.1591 124.453 21.2955 124.847 21.5682C125.244 21.8409 125.538 22.2159 125.727 22.6932H125.818C126.027 22.2273 126.358 21.8561 126.812 21.5795C127.267 21.2992 127.809 21.1591 128.438 21.1591C129.229 21.1591 129.875 21.4072 130.375 21.9034C130.879 22.3996 131.131 23.1477 131.131 24.1477V30H129.432V24.3068C129.432 23.7159 129.271 23.2879 128.949 23.0227C128.627 22.7576 128.242 22.625 127.795 22.625C127.242 22.625 126.812 22.7955 126.506 23.1364C126.199 23.4735 126.045 23.9072 126.045 24.4375V30H124.352V24.1989C124.352 23.7254 124.205 23.3447 123.909 23.0568C123.614 22.7689 123.229 22.625 122.756 22.625C122.434 22.625 122.136 22.7102 121.864 22.8807C121.595 23.0473 121.377 23.2803 121.21 23.5795C121.047 23.8788 120.966 24.2254 120.966 24.6193V30H119.267ZM135.947 30.1932C135.394 30.1932 134.894 30.0909 134.447 29.8864C134 29.678 133.646 29.3769 133.385 28.983C133.127 28.589 132.999 28.1061 132.999 27.5341C132.999 27.0417 133.093 26.6364 133.283 26.3182C133.472 26 133.728 25.7481 134.05 25.5625C134.372 25.3769 134.732 25.2367 135.129 25.142C135.527 25.0473 135.932 24.9754 136.345 24.9261C136.868 24.8655 137.292 24.8163 137.618 24.7784C137.944 24.7367 138.18 24.6705 138.328 24.5795C138.476 24.4886 138.55 24.3409 138.55 24.1364V24.0966C138.55 23.6004 138.41 23.2159 138.129 22.9432C137.853 22.6705 137.44 22.5341 136.891 22.5341C136.319 22.5341 135.868 22.661 135.538 22.9148C135.213 23.1648 134.987 23.4432 134.862 23.75L133.266 23.3864C133.455 22.8561 133.732 22.428 134.095 22.1023C134.463 21.7727 134.885 21.5341 135.362 21.3864C135.839 21.2348 136.341 21.1591 136.868 21.1591C137.216 21.1591 137.586 21.2008 137.976 21.2841C138.37 21.3636 138.737 21.5114 139.078 21.7273C139.423 21.9432 139.705 22.2519 139.925 22.6534C140.144 23.0511 140.254 23.5682 140.254 24.2045V30H138.595V28.8068H138.527C138.417 29.0265 138.252 29.2424 138.033 29.4545C137.813 29.6667 137.531 29.8428 137.186 29.983C136.841 30.1231 136.429 30.1932 135.947 30.1932ZM136.317 28.8295C136.786 28.8295 137.188 28.7367 137.521 28.5511C137.858 28.3655 138.114 28.1231 138.288 27.8239C138.466 27.5208 138.555 27.197 138.555 26.8523V25.7273C138.495 25.7879 138.377 25.8447 138.203 25.8977C138.033 25.947 137.838 25.9905 137.618 26.0284C137.398 26.0625 137.184 26.0947 136.976 26.125C136.768 26.1515 136.593 26.1742 136.453 26.1932C136.124 26.2348 135.822 26.3049 135.55 26.4034C135.281 26.5019 135.065 26.6439 134.902 26.8295C134.743 27.0114 134.663 27.2538 134.663 27.5568C134.663 27.9773 134.819 28.2955 135.129 28.5114C135.44 28.7235 135.836 28.8295 136.317 28.8295Z" fill="#374151"/>
<path d="M604 20.1667L603.587 26.8501C603.481 28.5576 603.429 29.4114 603.001 30.0253C602.789 30.3287 602.516 30.5849 602.2 30.7773C601.561 31.1667 600.706 31.1667 598.995 31.1667C597.282 31.1667 596.426 31.1667 595.786 30.7766C595.47 30.5838 595.197 30.3272 594.986 30.0232C594.558 29.4084 594.506 28.5534 594.403 26.8435L594 20.1667" stroke="#6B6671" stroke-linecap="round"/>
<path d="M593 20.1667H605M601.704 20.1667L601.249 19.2278C600.946 18.6042 600.795 18.2924 600.534 18.0979C600.477 18.0547 600.415 18.0164 600.351 17.9831C600.063 17.8333 599.716 17.8333 599.023 17.8333C598.313 17.8333 597.957 17.8333 597.664 17.9894C597.599 18.024 597.537 18.0639 597.478 18.1088C597.214 18.3111 597.067 18.6344 596.772 19.2809L596.369 20.1667" stroke="#6B6671" stroke-linecap="round"/>
<path d="M597.333 27.5V23.5" stroke="#6B6671" stroke-linecap="round"/>
<path d="M600.667 27.5V23.5" stroke="#6B6671" stroke-linecap="round"/>
<path d="M0 80.2C0 73.4794 0 70.1191 1.30792 67.5521C2.4584 65.2942 4.29417 63.4584 6.55211 62.3079C9.11905 61 12.4794 61 19.2 61H607.8C614.521 61 617.881 61 620.448 62.3079C622.706 63.4584 624.542 65.2942 625.692 67.5521C627 70.1191 627 73.4794 627 80.2V90.8C627 97.5206 627 100.881 625.692 103.448C624.542 105.706 622.706 107.542 620.448 108.692C617.881 110 614.521 110 607.8 110H19.2C12.4794 110 9.11905 110 6.55211 108.692C4.29417 107.542 2.4584 105.706 1.30792 103.448C0 100.881 0 97.5206 0 90.8V80.2Z" fill="white"/>
<rect x="12.5" y="78" width="15" height="15" rx="5.5" fill="white"/>
<rect x="12.5" y="78" width="15" height="15" rx="5.5" stroke="#D1D5DB"/>
<path d="M50.9432 83.1477H49.1705C49.1023 82.7689 48.9754 82.4356 48.7898 82.1477C48.6042 81.8598 48.3769 81.6155 48.108 81.4148C47.839 81.214 47.5379 81.0625 47.2045 80.9602C46.875 80.858 46.5246 80.8068 46.1534 80.8068C45.483 80.8068 44.8826 80.9754 44.3523 81.3125C43.8258 81.6496 43.4091 82.1439 43.1023 82.7955C42.7992 83.447 42.6477 84.2424 42.6477 85.1818C42.6477 86.1288 42.7992 86.928 43.1023 87.5795C43.4091 88.2311 43.8277 88.7235 44.358 89.0568C44.8883 89.3902 45.4848 89.5568 46.1477 89.5568C46.5152 89.5568 46.8636 89.5076 47.1932 89.4091C47.5265 89.3068 47.8277 89.1572 48.0966 88.9602C48.3655 88.7633 48.5928 88.5227 48.7784 88.2386C48.9678 87.9508 49.0985 87.6212 49.1705 87.25L50.9432 87.2557C50.8485 87.8277 50.6648 88.3542 50.392 88.8352C50.1231 89.3125 49.7765 89.7254 49.3523 90.0739C48.9318 90.4186 48.4508 90.6856 47.9091 90.875C47.3674 91.0644 46.7765 91.1591 46.1364 91.1591C45.1288 91.1591 44.2311 90.9205 43.4432 90.4432C42.6553 89.9621 42.0341 89.2746 41.5795 88.3807C41.1288 87.4867 40.9034 86.4205 40.9034 85.1818C40.9034 83.9394 41.1307 82.8731 41.5852 81.983C42.0398 81.089 42.661 80.4034 43.4489 79.9261C44.2367 79.4451 45.1326 79.2045 46.1364 79.2045C46.7538 79.2045 47.3295 79.2936 47.8636 79.4716C48.4015 79.6458 48.8845 79.9034 49.3125 80.2443C49.7405 80.5814 50.0947 80.9943 50.375 81.483C50.6553 81.9678 50.8447 82.5227 50.9432 83.1477ZM55.4474 91.1932C54.8944 91.1932 54.3944 91.0909 53.9474 90.8864C53.5005 90.678 53.1463 90.3769 52.8849 89.983C52.6274 89.589 52.4986 89.1061 52.4986 88.5341C52.4986 88.0417 52.5933 87.6364 52.7827 87.3182C52.9721 87 53.2277 86.7481 53.5497 86.5625C53.8717 86.3769 54.2315 86.2367 54.6293 86.142C55.027 86.0473 55.4323 85.9754 55.8452 85.9261C56.3679 85.8655 56.7921 85.8163 57.1179 85.7784C57.4437 85.7367 57.6804 85.6705 57.8281 85.5795C57.9759 85.4886 58.0497 85.3409 58.0497 85.1364V85.0966C58.0497 84.6004 57.9096 84.2159 57.6293 83.9432C57.3527 83.6705 56.9399 83.5341 56.3906 83.5341C55.8187 83.5341 55.3679 83.661 55.0384 83.9148C54.7126 84.1648 54.4872 84.4432 54.3622 84.75L52.7656 84.3864C52.955 83.8561 53.2315 83.428 53.5952 83.1023C53.9626 82.7727 54.3849 82.5341 54.8622 82.3864C55.3395 82.2348 55.8414 82.1591 56.3679 82.1591C56.7164 82.1591 57.0857 82.2008 57.4759 82.2841C57.8698 82.3636 58.2372 82.5114 58.5781 82.7273C58.9228 82.9432 59.205 83.2519 59.4247 83.6534C59.6444 84.0511 59.7543 84.5682 59.7543 85.2045V91H58.0952V89.8068H58.027C57.9171 90.0265 57.7524 90.2424 57.5327 90.4545C57.313 90.6667 57.0308 90.8428 56.6861 90.983C56.3414 91.1231 55.9285 91.1932 55.4474 91.1932ZM55.8168 89.8295C56.2865 89.8295 56.688 89.7367 57.0213 89.5511C57.3584 89.3655 57.6141 89.1231 57.7884 88.8239C57.9664 88.5208 58.0554 88.197 58.0554 87.8523V86.7273C57.9948 86.7879 57.8774 86.8447 57.7031 86.8977C57.5327 86.947 57.3376 86.9905 57.1179 87.0284C56.8982 87.0625 56.6842 87.0947 56.4759 87.125C56.2675 87.1515 56.0933 87.1742 55.9531 87.1932C55.6236 87.2348 55.3224 87.3049 55.0497 87.4034C54.7808 87.5019 54.5649 87.6439 54.402 87.8295C54.2429 88.0114 54.1634 88.2538 54.1634 88.5568C54.1634 88.9773 54.3187 89.2955 54.6293 89.5114C54.9399 89.7235 55.3357 89.8295 55.8168 89.8295ZM66.1705 82.2727V83.6364H61.2386V82.2727H66.1705ZM62.5909 91V81.2614C62.5909 80.7159 62.7102 80.2633 62.9489 79.9034C63.1875 79.5398 63.5038 79.2689 63.8977 79.0909C64.2917 78.9091 64.7197 78.8182 65.1818 78.8182C65.5227 78.8182 65.8144 78.8466 66.0568 78.9034C66.2992 78.9564 66.4792 79.0057 66.5966 79.0511L66.1989 80.4261C66.1193 80.4034 66.017 80.3769 65.892 80.3466C65.767 80.3125 65.6155 80.2955 65.4375 80.2955C65.0246 80.2955 64.7292 80.3977 64.5511 80.6023C64.3769 80.8068 64.2898 81.1023 64.2898 81.4886V91H62.5909ZM71.3409 91.1761C70.4811 91.1761 69.7405 90.9924 69.1193 90.625C68.5019 90.2538 68.0246 89.733 67.6875 89.0625C67.3542 88.3883 67.1875 87.5985 67.1875 86.6932C67.1875 85.7992 67.3542 85.0114 67.6875 84.3295C68.0246 83.6477 68.4943 83.1155 69.0966 82.733C69.7027 82.3504 70.411 82.1591 71.2216 82.1591C71.714 82.1591 72.1913 82.2405 72.6534 82.4034C73.1155 82.5663 73.5303 82.822 73.8977 83.1705C74.2652 83.5189 74.5549 83.9716 74.767 84.5284C74.9792 85.0814 75.0852 85.7538 75.0852 86.5455V87.1477H68.1477V85.875H73.4205C73.4205 85.428 73.3295 85.0322 73.1477 84.6875C72.9659 84.339 72.7102 84.0644 72.3807 83.8636C72.0549 83.6629 71.6723 83.5625 71.233 83.5625C70.7557 83.5625 70.339 83.6799 69.983 83.9148C69.6307 84.1458 69.358 84.4489 69.1648 84.8239C68.9754 85.1951 68.8807 85.5985 68.8807 86.0341V87.0284C68.8807 87.6117 68.983 88.108 69.1875 88.517C69.3958 88.9261 69.6856 89.2386 70.0568 89.4545C70.428 89.6667 70.8617 89.7727 71.358 89.7727C71.6799 89.7727 71.9735 89.7273 72.2386 89.6364C72.5038 89.5417 72.733 89.4015 72.9261 89.2159C73.1193 89.0303 73.267 88.8011 73.3693 88.5284L74.9773 88.8182C74.8485 89.2917 74.6174 89.7064 74.2841 90.0625C73.9545 90.4148 73.5398 90.6894 73.0398 90.8864C72.5436 91.0795 71.9773 91.1761 71.3409 91.1761ZM70.4545 81.108L71.7841 78.4886H73.5739L71.8125 81.108H70.4545ZM81.2045 94.2727V82.2727H82.8636V83.6875H83.0057C83.1042 83.5057 83.2462 83.2955 83.4318 83.0568C83.6174 82.8182 83.875 82.6098 84.2045 82.4318C84.5341 82.25 84.9697 82.1591 85.5114 82.1591C86.2159 82.1591 86.8447 82.3371 87.3977 82.6932C87.9508 83.0492 88.3845 83.5625 88.6989 84.233C89.017 84.9034 89.1761 85.7102 89.1761 86.6534C89.1761 87.5966 89.0189 88.4053 88.7045 89.0795C88.3902 89.75 87.9583 90.267 87.4091 90.6307C86.8598 90.9905 86.233 91.1705 85.5284 91.1705C84.9981 91.1705 84.5644 91.0814 84.2273 90.9034C83.8939 90.7254 83.6326 90.517 83.4432 90.2784C83.2538 90.0398 83.108 89.8277 83.0057 89.642H82.9034V94.2727H81.2045ZM82.8693 86.6364C82.8693 87.25 82.9583 87.7879 83.1364 88.25C83.3144 88.7121 83.572 89.0739 83.9091 89.3352C84.2462 89.5928 84.6591 89.7216 85.1477 89.7216C85.6553 89.7216 86.0795 89.5871 86.4205 89.3182C86.7614 89.0455 87.0189 88.6761 87.1932 88.2102C87.3712 87.7443 87.4602 87.2197 87.4602 86.6364C87.4602 86.0606 87.3731 85.5436 87.1989 85.0852C87.0284 84.6269 86.7708 84.2652 86.4261 84C86.0852 83.7348 85.6591 83.6023 85.1477 83.6023C84.6553 83.6023 84.2386 83.7292 83.8977 83.983C83.5606 84.2367 83.3049 84.5909 83.1307 85.0455C82.9564 85.5 82.8693 86.0303 82.8693 86.6364ZM91.0795 91V82.2727H92.7216V83.6591H92.8125C92.9716 83.1894 93.2519 82.8201 93.6534 82.5511C94.0587 82.2784 94.517 82.142 95.0284 82.142C95.1345 82.142 95.2595 82.1458 95.4034 82.1534C95.5511 82.161 95.6667 82.1705 95.75 82.1818V83.8068C95.6818 83.7879 95.5606 83.767 95.3864 83.7443C95.2121 83.7178 95.0379 83.7045 94.8636 83.7045C94.4621 83.7045 94.1042 83.7898 93.7898 83.9602C93.4792 84.1269 93.233 84.3598 93.0511 84.6591C92.8693 84.9545 92.7784 85.2917 92.7784 85.6705V91H91.0795ZM100.669 91.1761C99.8092 91.1761 99.0687 90.9924 98.4474 90.625C97.83 90.2538 97.3527 89.733 97.0156 89.0625C96.6823 88.3883 96.5156 87.5985 96.5156 86.6932C96.5156 85.7992 96.6823 85.0114 97.0156 84.3295C97.3527 83.6477 97.8224 83.1155 98.4247 82.733C99.0308 82.3504 99.7391 82.1591 100.55 82.1591C101.042 82.1591 101.519 82.2405 101.982 82.4034C102.444 82.5663 102.858 82.822 103.226 83.1705C103.593 83.5189 103.883 83.9716 104.095 84.5284C104.307 85.0814 104.413 85.7538 104.413 86.5455V87.1477H97.4759V85.875H102.749C102.749 85.428 102.658 85.0322 102.476 84.6875C102.294 84.339 102.038 84.0644 101.709 83.8636C101.383 83.6629 101 83.5625 100.561 83.5625C100.084 83.5625 99.6671 83.6799 99.3111 83.9148C98.9588 84.1458 98.6861 84.4489 98.4929 84.8239C98.3035 85.1951 98.2088 85.5985 98.2088 86.0341V87.0284C98.2088 87.6117 98.3111 88.108 98.5156 88.517C98.724 88.9261 99.0137 89.2386 99.3849 89.4545C99.7562 89.6667 100.19 89.7727 100.686 89.7727C101.008 89.7727 101.302 89.7273 101.567 89.6364C101.832 89.5417 102.061 89.4015 102.254 89.2159C102.447 89.0303 102.595 88.8011 102.697 88.5284L104.305 88.8182C104.177 89.2917 103.946 89.7064 103.612 90.0625C103.283 90.4148 102.868 90.6894 102.368 90.8864C101.872 91.0795 101.305 91.1761 100.669 91.1761ZM110.372 82.2727V83.6364H105.605V82.2727H110.372ZM106.884 80.1818H108.582V88.4375C108.582 88.767 108.632 89.0152 108.73 89.1818C108.829 89.3447 108.955 89.4564 109.111 89.517C109.27 89.5739 109.442 89.6023 109.628 89.6023C109.764 89.6023 109.884 89.5928 109.986 89.5739C110.088 89.5549 110.168 89.5398 110.224 89.5284L110.531 90.9318C110.433 90.9697 110.293 91.0076 110.111 91.0455C109.929 91.0871 109.702 91.1098 109.429 91.1136C108.982 91.1212 108.565 91.0417 108.179 90.875C107.793 90.7083 107.48 90.4508 107.241 90.1023C107.003 89.7538 106.884 89.3163 106.884 88.7898V80.1818ZM115.834 91.1761C115.016 91.1761 114.302 90.9886 113.692 90.6136C113.082 90.2386 112.608 89.714 112.271 89.0398C111.934 88.3655 111.766 87.5777 111.766 86.6761C111.766 85.7708 111.934 84.9792 112.271 84.3011C112.608 83.6231 113.082 83.0966 113.692 82.7216C114.302 82.3466 115.016 82.1591 115.834 82.1591C116.652 82.1591 117.366 82.3466 117.976 82.7216C118.586 83.0966 119.059 83.6231 119.396 84.3011C119.733 84.9792 119.902 85.7708 119.902 86.6761C119.902 87.5777 119.733 88.3655 119.396 89.0398C119.059 89.714 118.586 90.2386 117.976 90.6136C117.366 90.9886 116.652 91.1761 115.834 91.1761ZM115.839 89.75C116.37 89.75 116.809 89.6098 117.158 89.3295C117.506 89.0492 117.764 88.6761 117.93 88.2102C118.101 87.7443 118.186 87.2311 118.186 86.6705C118.186 86.1136 118.101 85.6023 117.93 85.1364C117.764 84.6667 117.506 84.2898 117.158 84.0057C116.809 83.7216 116.37 83.5795 115.839 83.5795C115.305 83.5795 114.862 83.7216 114.51 84.0057C114.161 84.2898 113.902 84.6667 113.732 85.1364C113.565 85.6023 113.482 86.1136 113.482 86.6705C113.482 87.2311 113.565 87.7443 113.732 88.2102C113.902 88.6761 114.161 89.0492 114.51 89.3295C114.862 89.6098 115.305 89.75 115.839 89.75Z" fill="#374151"/>
<path d="M604 81.1667L603.587 87.8501C603.481 89.5576 603.429 90.4114 603.001 91.0253C602.789 91.3288 602.516 91.5849 602.2 91.7774C601.561 92.1667 600.706 92.1667 598.995 92.1667C597.282 92.1667 596.426 92.1667 595.786 91.7766C595.47 91.5838 595.197 91.3272 594.986 91.0232C594.558 90.4084 594.506 89.5534 594.403 87.8435L594 81.1667" stroke="#6B6671" stroke-linecap="round"/>
<path d="M593 81.1666H605M601.704 81.1666L601.249 80.2278C600.946 79.6042 600.795 79.2923 600.534 79.0979C600.477 79.0547 600.415 79.0163 600.351 78.9831C600.063 78.8333 599.716 78.8333 599.023 78.8333C598.313 78.8333 597.957 78.8333 597.664 78.9894C597.599 79.024 597.537 79.0639 597.478 79.1088C597.214 79.3111 597.067 79.6343 596.772 80.2808L596.369 81.1666" stroke="#6B6671" stroke-linecap="round"/>
<path d="M597.333 88.5V84.5" stroke="#6B6671" stroke-linecap="round"/>
<path d="M600.667 88.5V84.5" stroke="#6B6671" stroke-linecap="round"/>
<path d="M0 141.2C0 134.479 0 131.119 1.30792 128.552C2.4584 126.294 4.29417 124.458 6.55211 123.308C9.11905 122 12.4794 122 19.2 122H607.8C614.521 122 617.881 122 620.448 123.308C622.706 124.458 624.542 126.294 625.692 128.552C627 131.119 627 134.479 627 141.2V151.8C627 158.521 627 161.881 625.692 164.448C624.542 166.706 622.706 168.542 620.448 169.692C617.881 171 614.521 171 607.8 171H19.2C12.4794 171 9.11905 171 6.55211 169.692C4.29417 168.542 2.4584 166.706 1.30792 164.448C0 161.881 0 158.521 0 151.8V141.2Z" fill="white"/>
<rect x="12.5" y="139" width="15" height="15" rx="5.5" fill="white"/>
<rect x="12.5" y="139" width="15" height="15" rx="5.5" stroke="#D1D5DB"/>
<path d="M47.625 143.42C47.5644 142.883 47.3144 142.466 46.875 142.17C46.4356 141.871 45.8826 141.722 45.2159 141.722C44.7386 141.722 44.3258 141.797 43.9773 141.949C43.6288 142.097 43.358 142.301 43.1648 142.562C42.9754 142.82 42.8807 143.114 42.8807 143.443C42.8807 143.72 42.9451 143.958 43.0739 144.159C43.2064 144.36 43.3788 144.528 43.5909 144.665C43.8068 144.797 44.0379 144.909 44.2841 145C44.5303 145.087 44.767 145.159 44.9943 145.216L46.1307 145.511C46.5019 145.602 46.8826 145.725 47.2727 145.881C47.6629 146.036 48.0246 146.241 48.358 146.494C48.6913 146.748 48.9602 147.062 49.1648 147.438C49.3731 147.812 49.4773 148.261 49.4773 148.784C49.4773 149.443 49.3068 150.028 48.9659 150.54C48.6288 151.051 48.1383 151.455 47.4943 151.75C46.8542 152.045 46.0795 152.193 45.1705 152.193C44.2992 152.193 43.5455 152.055 42.9091 151.778C42.2727 151.502 41.7746 151.11 41.4148 150.602C41.0549 150.091 40.8561 149.485 40.8182 148.784H42.5795C42.6136 149.205 42.75 149.555 42.9886 149.835C43.2311 150.112 43.5398 150.318 43.9148 150.455C44.2936 150.587 44.7083 150.653 45.1591 150.653C45.6553 150.653 46.0966 150.576 46.483 150.42C46.8731 150.261 47.1799 150.042 47.4034 149.761C47.6269 149.477 47.7386 149.146 47.7386 148.767C47.7386 148.422 47.6402 148.14 47.4432 147.92C47.25 147.701 46.9867 147.519 46.6534 147.375C46.3239 147.231 45.9508 147.104 45.5341 146.994L44.1591 146.619C43.2273 146.366 42.4886 145.992 41.9432 145.5C41.4015 145.008 41.1307 144.356 41.1307 143.545C41.1307 142.875 41.3125 142.29 41.6761 141.79C42.0398 141.29 42.5322 140.902 43.1534 140.625C43.7746 140.345 44.4754 140.205 45.2557 140.205C46.0436 140.205 46.7386 140.343 47.3409 140.619C47.947 140.896 48.4242 141.277 48.7727 141.761C49.1212 142.242 49.303 142.795 49.3182 143.42H47.625ZM56.9673 148.381V143.273H58.6719V152H57.0014V150.489H56.9105C56.7098 150.955 56.3878 151.343 55.9446 151.653C55.5052 151.96 54.9579 152.114 54.3026 152.114C53.742 152.114 53.2457 151.991 52.8139 151.744C52.3859 151.494 52.0488 151.125 51.8026 150.636C51.5601 150.148 51.4389 149.544 51.4389 148.824V143.273H53.1378V148.619C53.1378 149.214 53.3026 149.687 53.6321 150.04C53.9616 150.392 54.3897 150.568 54.9162 150.568C55.2344 150.568 55.5507 150.489 55.8651 150.33C56.1832 150.17 56.4465 149.93 56.6548 149.608C56.867 149.286 56.9711 148.877 56.9673 148.381ZM64.6307 152.176C63.786 152.176 63.0587 151.985 62.4489 151.602C61.8428 151.216 61.3769 150.684 61.0511 150.006C60.7254 149.328 60.5625 148.551 60.5625 147.676C60.5625 146.79 60.7292 146.008 61.0625 145.33C61.3958 144.648 61.8655 144.116 62.4716 143.733C63.0777 143.35 63.7917 143.159 64.6136 143.159C65.2765 143.159 65.8674 143.282 66.3864 143.528C66.9053 143.771 67.3239 144.112 67.642 144.551C67.964 144.991 68.1553 145.504 68.2159 146.091H66.5625C66.4716 145.682 66.2633 145.33 65.9375 145.034C65.6155 144.739 65.1837 144.591 64.642 144.591C64.1686 144.591 63.7538 144.716 63.3977 144.966C63.0455 145.212 62.7708 145.564 62.5739 146.023C62.3769 146.477 62.2784 147.015 62.2784 147.636C62.2784 148.273 62.375 148.822 62.5682 149.284C62.7614 149.746 63.0341 150.104 63.3864 150.358C63.7424 150.612 64.161 150.739 64.642 150.739C64.964 150.739 65.2557 150.68 65.517 150.562C65.7822 150.441 66.0038 150.269 66.1818 150.045C66.3636 149.822 66.4905 149.553 66.5625 149.239H68.2159C68.1553 149.803 67.9716 150.307 67.6648 150.75C67.358 151.193 66.947 151.542 66.4318 151.795C65.9205 152.049 65.3201 152.176 64.6307 152.176ZM73.7088 152.176C72.8906 152.176 72.1766 151.989 71.5668 151.614C70.9569 151.239 70.4834 150.714 70.1463 150.04C69.8092 149.366 69.6406 148.578 69.6406 147.676C69.6406 146.771 69.8092 145.979 70.1463 145.301C70.4834 144.623 70.9569 144.097 71.5668 143.722C72.1766 143.347 72.8906 143.159 73.7088 143.159C74.527 143.159 75.241 143.347 75.8509 143.722C76.4607 144.097 76.9342 144.623 77.2713 145.301C77.6084 145.979 77.777 146.771 77.777 147.676C77.777 148.578 77.6084 149.366 77.2713 150.04C76.9342 150.714 76.4607 151.239 75.8509 151.614C75.241 151.989 74.527 152.176 73.7088 152.176ZM73.7145 150.75C74.2448 150.75 74.6842 150.61 75.0327 150.33C75.3812 150.049 75.6387 149.676 75.8054 149.21C75.9759 148.744 76.0611 148.231 76.0611 147.67C76.0611 147.114 75.9759 146.602 75.8054 146.136C75.6387 145.667 75.3812 145.29 75.0327 145.006C74.6842 144.722 74.2448 144.58 73.7145 144.58C73.1804 144.58 72.7372 144.722 72.3849 145.006C72.0365 145.29 71.777 145.667 71.6065 146.136C71.4399 146.602 71.3565 147.114 71.3565 147.67C71.3565 148.231 71.4399 148.744 71.6065 149.21C71.777 149.676 72.0365 150.049 72.3849 150.33C72.7372 150.61 73.1804 150.75 73.7145 150.75ZM87.1747 152.17C86.4702 152.17 85.8414 151.991 85.2884 151.631C84.7391 151.267 84.3073 150.75 83.9929 150.08C83.6823 149.405 83.527 148.597 83.527 147.653C83.527 146.71 83.6842 145.903 83.9986 145.233C84.3168 144.562 84.7524 144.049 85.3054 143.693C85.8584 143.337 86.4853 143.159 87.1861 143.159C87.7277 143.159 88.1634 143.25 88.4929 143.432C88.8262 143.61 89.0838 143.818 89.2656 144.057C89.4512 144.295 89.5952 144.506 89.6974 144.688H89.7997V140.364H91.4986V152H89.8395V150.642H89.6974C89.5952 150.828 89.4474 151.04 89.2543 151.278C89.0649 151.517 88.8035 151.725 88.4702 151.903C88.1368 152.081 87.705 152.17 87.1747 152.17ZM87.5497 150.722C88.0384 150.722 88.4512 150.593 88.7884 150.335C89.1293 150.074 89.3868 149.712 89.5611 149.25C89.7391 148.788 89.8281 148.25 89.8281 147.636C89.8281 147.03 89.741 146.5 89.5668 146.045C89.3925 145.591 89.1368 145.237 88.7997 144.983C88.4626 144.729 88.0459 144.602 87.5497 144.602C87.0384 144.602 86.6122 144.735 86.2713 145C85.9304 145.265 85.6728 145.627 85.4986 146.085C85.3281 146.544 85.2429 147.061 85.2429 147.636C85.2429 148.22 85.33 148.744 85.5043 149.21C85.6785 149.676 85.9361 150.045 86.277 150.318C86.6217 150.587 87.0459 150.722 87.5497 150.722ZM97.6847 152.176C96.8248 152.176 96.0843 151.992 95.4631 151.625C94.8456 151.254 94.3684 150.733 94.0312 150.062C93.6979 149.388 93.5312 148.598 93.5312 147.693C93.5312 146.799 93.6979 146.011 94.0312 145.33C94.3684 144.648 94.8381 144.116 95.4403 143.733C96.0464 143.35 96.7547 143.159 97.5653 143.159C98.0578 143.159 98.535 143.241 98.9972 143.403C99.4593 143.566 99.8741 143.822 100.241 144.17C100.609 144.519 100.899 144.972 101.111 145.528C101.323 146.081 101.429 146.754 101.429 147.545V148.148H94.4915V146.875H99.7642C99.7642 146.428 99.6733 146.032 99.4915 145.688C99.3097 145.339 99.054 145.064 98.7244 144.864C98.3987 144.663 98.0161 144.562 97.5767 144.562C97.0994 144.562 96.6828 144.68 96.3267 144.915C95.9744 145.146 95.7017 145.449 95.5085 145.824C95.3191 146.195 95.2244 146.598 95.2244 147.034V148.028C95.2244 148.612 95.3267 149.108 95.5312 149.517C95.7396 149.926 96.0294 150.239 96.4006 150.455C96.7718 150.667 97.2055 150.773 97.7017 150.773C98.0237 150.773 98.3172 150.727 98.5824 150.636C98.8475 150.542 99.0767 150.402 99.2699 150.216C99.4631 150.03 99.6108 149.801 99.7131 149.528L101.321 149.818C101.192 150.292 100.961 150.706 100.628 151.062C100.298 151.415 99.8835 151.689 99.3835 151.886C98.8873 152.08 98.321 152.176 97.6847 152.176ZM109.247 140.364V152H107.548V140.364H109.247ZM114.072 152.193C113.519 152.193 113.019 152.091 112.572 151.886C112.125 151.678 111.771 151.377 111.51 150.983C111.252 150.589 111.124 150.106 111.124 149.534C111.124 149.042 111.218 148.636 111.408 148.318C111.597 148 111.853 147.748 112.175 147.562C112.497 147.377 112.857 147.237 113.254 147.142C113.652 147.047 114.057 146.975 114.47 146.926C114.993 146.866 115.417 146.816 115.743 146.778C116.069 146.737 116.305 146.67 116.453 146.58C116.601 146.489 116.675 146.341 116.675 146.136V146.097C116.675 145.6 116.535 145.216 116.254 144.943C115.978 144.67 115.565 144.534 115.016 144.534C114.444 144.534 113.993 144.661 113.663 144.915C113.338 145.165 113.112 145.443 112.987 145.75L111.391 145.386C111.58 144.856 111.857 144.428 112.22 144.102C112.588 143.773 113.01 143.534 113.487 143.386C113.964 143.235 114.466 143.159 114.993 143.159C115.341 143.159 115.711 143.201 116.101 143.284C116.495 143.364 116.862 143.511 117.203 143.727C117.548 143.943 117.83 144.252 118.05 144.653C118.269 145.051 118.379 145.568 118.379 146.205V152H116.72V150.807H116.652C116.542 151.027 116.377 151.242 116.158 151.455C115.938 151.667 115.656 151.843 115.311 151.983C114.966 152.123 114.554 152.193 114.072 152.193ZM114.442 150.83C114.911 150.83 115.313 150.737 115.646 150.551C115.983 150.366 116.239 150.123 116.413 149.824C116.591 149.521 116.68 149.197 116.68 148.852V147.727C116.62 147.788 116.502 147.845 116.328 147.898C116.158 147.947 115.963 147.991 115.743 148.028C115.523 148.062 115.309 148.095 115.101 148.125C114.893 148.152 114.718 148.174 114.578 148.193C114.249 148.235 113.947 148.305 113.675 148.403C113.406 148.502 113.19 148.644 113.027 148.83C112.868 149.011 112.788 149.254 112.788 149.557C112.788 149.977 112.944 150.295 113.254 150.511C113.565 150.723 113.961 150.83 114.442 150.83ZM120.642 152V143.273H122.284V144.659H122.375C122.534 144.189 122.814 143.82 123.216 143.551C123.621 143.278 124.08 143.142 124.591 143.142C124.697 143.142 124.822 143.146 124.966 143.153C125.114 143.161 125.229 143.17 125.312 143.182V144.807C125.244 144.788 125.123 144.767 124.949 144.744C124.775 144.718 124.6 144.705 124.426 144.705C124.025 144.705 123.667 144.79 123.352 144.96C123.042 145.127 122.795 145.36 122.614 145.659C122.432 145.955 122.341 146.292 122.341 146.67V152H120.642ZM129.244 152.193C128.691 152.193 128.191 152.091 127.744 151.886C127.297 151.678 126.943 151.377 126.682 150.983C126.424 150.589 126.295 150.106 126.295 149.534C126.295 149.042 126.39 148.636 126.58 148.318C126.769 148 127.025 147.748 127.347 147.562C127.669 147.377 128.028 147.237 128.426 147.142C128.824 147.047 129.229 146.975 129.642 146.926C130.165 146.866 130.589 146.816 130.915 146.778C131.241 146.737 131.477 146.67 131.625 146.58C131.773 146.489 131.847 146.341 131.847 146.136V146.097C131.847 145.6 131.706 145.216 131.426 144.943C131.15 144.67 130.737 144.534 130.188 144.534C129.616 144.534 129.165 144.661 128.835 144.915C128.509 145.165 128.284 145.443 128.159 145.75L126.562 145.386C126.752 144.856 127.028 144.428 127.392 144.102C127.759 143.773 128.182 143.534 128.659 143.386C129.136 143.235 129.638 143.159 130.165 143.159C130.513 143.159 130.883 143.201 131.273 143.284C131.667 143.364 132.034 143.511 132.375 143.727C132.72 143.943 133.002 144.252 133.222 144.653C133.441 145.051 133.551 145.568 133.551 146.205V152H131.892V150.807H131.824C131.714 151.027 131.549 151.242 131.33 151.455C131.11 151.667 130.828 151.843 130.483 151.983C130.138 152.123 129.725 152.193 129.244 152.193ZM129.614 150.83C130.083 150.83 130.485 150.737 130.818 150.551C131.155 150.366 131.411 150.123 131.585 149.824C131.763 149.521 131.852 149.197 131.852 148.852V147.727C131.792 147.788 131.674 147.845 131.5 147.898C131.33 147.947 131.134 147.991 130.915 148.028C130.695 148.062 130.481 148.095 130.273 148.125C130.064 148.152 129.89 148.174 129.75 148.193C129.42 148.235 129.119 148.305 128.847 148.403C128.578 148.502 128.362 148.644 128.199 148.83C128.04 149.011 127.96 149.254 127.96 149.557C127.96 149.977 128.116 150.295 128.426 150.511C128.737 150.723 129.133 150.83 129.614 150.83ZM137.513 146.818V152H135.814V143.273H137.445V144.693H137.553C137.753 144.231 138.068 143.86 138.496 143.58C138.928 143.299 139.471 143.159 140.126 143.159C140.721 143.159 141.242 143.284 141.689 143.534C142.136 143.78 142.482 144.148 142.729 144.636C142.975 145.125 143.098 145.729 143.098 146.449V152H141.399V146.653C141.399 146.021 141.234 145.527 140.905 145.17C140.575 144.811 140.123 144.631 139.547 144.631C139.153 144.631 138.803 144.716 138.496 144.886C138.193 145.057 137.952 145.307 137.774 145.636C137.6 145.962 137.513 146.356 137.513 146.818ZM145.376 143.273H147.075V152.568C147.075 153.152 146.969 153.644 146.757 154.045C146.549 154.447 146.238 154.752 145.825 154.96C145.416 155.169 144.911 155.273 144.308 155.273C144.248 155.273 144.191 155.273 144.138 155.273C144.081 155.273 144.022 155.271 143.962 155.267V153.807C144.015 153.807 144.062 153.807 144.104 153.807C144.142 153.807 144.185 153.807 144.234 153.807C144.636 153.807 144.926 153.699 145.104 153.483C145.286 153.271 145.376 152.962 145.376 152.557V143.273ZM146.217 141.926C145.922 141.926 145.668 141.828 145.456 141.631C145.248 141.43 145.143 141.191 145.143 140.915C145.143 140.634 145.248 140.396 145.456 140.199C145.668 139.998 145.922 139.898 146.217 139.898C146.513 139.898 146.765 139.998 146.973 140.199C147.185 140.396 147.291 140.634 147.291 140.915C147.291 141.191 147.185 141.43 146.973 141.631C146.765 141.828 146.513 141.926 146.217 141.926ZM151.901 152.193C151.348 152.193 150.848 152.091 150.401 151.886C149.954 151.678 149.599 151.377 149.338 150.983C149.08 150.589 148.952 150.106 148.952 149.534C148.952 149.042 149.046 148.636 149.236 148.318C149.425 148 149.681 147.748 150.003 147.562C150.325 147.377 150.685 147.237 151.082 147.142C151.48 147.047 151.885 146.975 152.298 146.926C152.821 146.866 153.245 146.816 153.571 146.778C153.897 146.737 154.134 146.67 154.281 146.58C154.429 146.489 154.503 146.341 154.503 146.136V146.097C154.503 145.6 154.363 145.216 154.082 144.943C153.806 144.67 153.393 144.534 152.844 144.534C152.272 144.534 151.821 144.661 151.491 144.915C151.166 145.165 150.94 145.443 150.815 145.75L149.219 145.386C149.408 144.856 149.685 144.428 150.048 144.102C150.416 143.773 150.838 143.534 151.315 143.386C151.793 143.235 152.295 143.159 152.821 143.159C153.17 143.159 153.539 143.201 153.929 143.284C154.323 143.364 154.69 143.511 155.031 143.727C155.376 143.943 155.658 144.252 155.878 144.653C156.098 145.051 156.207 145.568 156.207 146.205V152H154.548V150.807H154.48C154.37 151.027 154.205 151.242 153.986 151.455C153.766 151.667 153.484 151.843 153.139 151.983C152.795 152.123 152.382 152.193 151.901 152.193ZM152.27 150.83C152.74 150.83 153.141 150.737 153.474 150.551C153.812 150.366 154.067 150.123 154.241 149.824C154.42 149.521 154.509 149.197 154.509 148.852V147.727C154.448 147.788 154.33 147.845 154.156 147.898C153.986 147.947 153.791 147.991 153.571 148.028C153.351 148.062 153.137 148.095 152.929 148.125C152.721 148.152 152.546 148.174 152.406 148.193C152.077 148.235 151.776 148.305 151.503 148.403C151.234 148.502 151.018 148.644 150.855 148.83C150.696 149.011 150.616 149.254 150.616 149.557C150.616 149.977 150.772 150.295 151.082 150.511C151.393 150.723 151.789 150.83 152.27 150.83Z" fill="#374151"/>
<path d="M604 142.167L603.587 148.85C603.481 150.558 603.429 151.411 603.001 152.025C602.789 152.329 602.516 152.585 602.2 152.777C601.561 153.167 600.706 153.167 598.995 153.167C597.282 153.167 596.426 153.167 595.786 152.777C595.47 152.584 595.197 152.327 594.986 152.023C594.558 151.408 594.506 150.553 594.403 148.843L594 142.167" stroke="#6B6671" stroke-linecap="round"/>
<path d="M593 142.167H605M601.704 142.167L601.249 141.228C600.946 140.604 600.795 140.292 600.534 140.098C600.477 140.055 600.415 140.016 600.351 139.983C600.063 139.833 599.716 139.833 599.023 139.833C598.313 139.833 597.957 139.833 597.664 139.989C597.599 140.024 597.537 140.064 597.478 140.109C597.214 140.311 597.067 140.634 596.772 141.281L596.369 142.167" stroke="#6B6671" stroke-linecap="round"/>
<path d="M597.333 149.5V145.5" stroke="#6B6671" stroke-linecap="round"/>
<path d="M600.667 149.5V145.5" stroke="#6B6671" stroke-linecap="round"/>
<path d="M0 202.2C0 195.479 0 192.119 1.30792 189.552C2.4584 187.294 4.29417 185.458 6.55211 184.308C9.11905 183 12.4794 183 19.2 183H607.8C614.521 183 617.881 183 620.448 184.308C622.706 185.458 624.542 187.294 625.692 189.552C627 192.119 627 195.479 627 202.2V212.8C627 219.521 627 222.881 625.692 225.448C624.542 227.706 622.706 229.542 620.448 230.692C617.881 232 614.521 232 607.8 232H19.2C12.4794 232 9.11905 232 6.55211 230.692C4.29417 229.542 2.4584 227.706 1.30792 225.448C0 222.881 0 219.521 0 212.8V202.2Z" fill="white"/>
<rect x="12.5" y="200" width="15" height="15" rx="5.5" fill="white"/>
<rect x="12.5" y="200" width="15" height="15" rx="5.5" stroke="#D1D5DB"/>
<path d="M41.2784 213V201.364H45.5398C46.3655 201.364 47.0492 201.5 47.5909 201.773C48.1326 202.042 48.5379 202.407 48.8068 202.869C49.0758 203.328 49.2102 203.845 49.2102 204.42C49.2102 204.905 49.1212 205.314 48.9432 205.648C48.7652 205.977 48.5265 206.242 48.2273 206.443C47.9318 206.64 47.6061 206.784 47.25 206.875V206.989C47.6364 207.008 48.0133 207.133 48.3807 207.364C48.7519 207.591 49.0587 207.915 49.3011 208.335C49.5436 208.756 49.6648 209.267 49.6648 209.869C49.6648 210.464 49.5246 210.998 49.2443 211.472C48.9678 211.941 48.5398 212.314 47.9602 212.591C47.3807 212.864 46.6402 213 45.7386 213H41.2784ZM43.0341 211.494H45.5682C46.4091 211.494 47.0114 211.331 47.375 211.006C47.7386 210.68 47.9205 210.273 47.9205 209.784C47.9205 209.417 47.8277 209.08 47.642 208.773C47.4564 208.466 47.1913 208.222 46.8466 208.04C46.5057 207.858 46.1004 207.767 45.6307 207.767H43.0341V211.494ZM43.0341 206.398H45.3864C45.7803 206.398 46.1345 206.322 46.4489 206.17C46.767 206.019 47.0189 205.807 47.2045 205.534C47.3939 205.258 47.4886 204.932 47.4886 204.557C47.4886 204.076 47.3201 203.672 46.983 203.347C46.6458 203.021 46.1288 202.858 45.4318 202.858H43.0341V206.398ZM55.2869 213.176C54.4688 213.176 53.7547 212.989 53.1449 212.614C52.535 212.239 52.0616 211.714 51.7244 211.04C51.3873 210.366 51.2188 209.578 51.2188 208.676C51.2188 207.771 51.3873 206.979 51.7244 206.301C52.0616 205.623 52.535 205.097 53.1449 204.722C53.7547 204.347 54.4688 204.159 55.2869 204.159C56.1051 204.159 56.8191 204.347 57.429 204.722C58.0388 205.097 58.5123 205.623 58.8494 206.301C59.1866 206.979 59.3551 207.771 59.3551 208.676C59.3551 209.578 59.1866 210.366 58.8494 211.04C58.5123 211.714 58.0388 212.239 57.429 212.614C56.8191 212.989 56.1051 213.176 55.2869 213.176ZM55.2926 211.75C55.8229 211.75 56.2623 211.61 56.6108 211.33C56.9593 211.049 57.2169 210.676 57.3835 210.21C57.554 209.744 57.6392 209.231 57.6392 208.67C57.6392 208.114 57.554 207.602 57.3835 207.136C57.2169 206.667 56.9593 206.29 56.6108 206.006C56.2623 205.722 55.8229 205.58 55.2926 205.58C54.7585 205.58 54.3153 205.722 53.9631 206.006C53.6146 206.29 53.3551 206.667 53.1847 207.136C53.018 207.602 52.9347 208.114 52.9347 208.67C52.9347 209.231 53.018 209.744 53.1847 210.21C53.3551 210.676 53.6146 211.049 53.9631 211.33C54.3153 211.61 54.7585 211.75 55.2926 211.75ZM62.9503 201.364V213H61.2514V201.364H62.9503ZM67.7756 213.193C67.2225 213.193 66.7225 213.091 66.2756 212.886C65.8286 212.678 65.4744 212.377 65.2131 211.983C64.9555 211.589 64.8267 211.106 64.8267 210.534C64.8267 210.042 64.9214 209.636 65.1108 209.318C65.3002 209 65.5559 208.748 65.8778 208.562C66.1998 208.377 66.5597 208.237 66.9574 208.142C67.3551 208.047 67.7604 207.975 68.1733 207.926C68.696 207.866 69.1203 207.816 69.446 207.778C69.7718 207.737 70.0085 207.67 70.1562 207.58C70.304 207.489 70.3778 207.341 70.3778 207.136V207.097C70.3778 206.6 70.2377 206.216 69.9574 205.943C69.6809 205.67 69.268 205.534 68.7188 205.534C68.1468 205.534 67.696 205.661 67.3665 205.915C67.0407 206.165 66.8153 206.443 66.6903 206.75L65.0938 206.386C65.2831 205.856 65.5597 205.428 65.9233 205.102C66.2907 204.773 66.7131 204.534 67.1903 204.386C67.6676 204.235 68.1695 204.159 68.696 204.159C69.0445 204.159 69.4138 204.201 69.804 204.284C70.1979 204.364 70.5653 204.511 70.9062 204.727C71.2509 204.943 71.5331 205.252 71.7528 205.653C71.9725 206.051 72.0824 206.568 72.0824 207.205V213H70.4233V211.807H70.3551C70.2453 212.027 70.0805 212.242 69.8608 212.455C69.6411 212.667 69.3589 212.843 69.0142 212.983C68.6695 213.123 68.2566 213.193 67.7756 213.193ZM68.1449 211.83C68.6146 211.83 69.0161 211.737 69.3494 211.551C69.6866 211.366 69.9422 211.123 70.1165 210.824C70.2945 210.521 70.3835 210.197 70.3835 209.852V208.727C70.3229 208.788 70.2055 208.845 70.0312 208.898C69.8608 208.947 69.6657 208.991 69.446 209.028C69.2263 209.062 69.0123 209.095 68.804 209.125C68.5956 209.152 68.4214 209.174 68.2812 209.193C67.9517 209.235 67.6506 209.305 67.3778 209.403C67.1089 209.502 66.893 209.644 66.7301 209.83C66.571 210.011 66.4915 210.254 66.4915 210.557C66.4915 210.977 66.6468 211.295 66.9574 211.511C67.268 211.723 67.6638 211.83 68.1449 211.83ZM78.0213 213.176C77.1766 213.176 76.4493 212.985 75.8395 212.602C75.2334 212.216 74.7675 211.684 74.4418 211.006C74.116 210.328 73.9531 209.551 73.9531 208.676C73.9531 207.79 74.1198 207.008 74.4531 206.33C74.7865 205.648 75.2562 205.116 75.8622 204.733C76.4683 204.35 77.1823 204.159 78.0043 204.159C78.6671 204.159 79.258 204.282 79.777 204.528C80.2959 204.771 80.7145 205.112 81.0327 205.551C81.3546 205.991 81.5459 206.504 81.6065 207.091H79.9531C79.8622 206.682 79.6539 206.33 79.3281 206.034C79.0062 205.739 78.5743 205.591 78.0327 205.591C77.5592 205.591 77.1444 205.716 76.7884 205.966C76.4361 206.212 76.1615 206.564 75.9645 207.023C75.7675 207.477 75.669 208.015 75.669 208.636C75.669 209.273 75.7656 209.822 75.9588 210.284C76.152 210.746 76.4247 211.104 76.777 211.358C77.133 211.612 77.5516 211.739 78.0327 211.739C78.3546 211.739 78.6463 211.68 78.9077 211.562C79.1728 211.441 79.3944 211.269 79.5724 211.045C79.7543 210.822 79.8812 210.553 79.9531 210.239H81.6065C81.5459 210.803 81.3622 211.307 81.0554 211.75C80.7486 212.193 80.3376 212.542 79.8224 212.795C79.3111 213.049 78.7107 213.176 78.0213 213.176ZM85.1222 207.818V213H83.4233V201.364H85.0994V205.693H85.2074C85.4119 205.223 85.7244 204.85 86.1449 204.574C86.5653 204.297 87.1146 204.159 87.7926 204.159C88.3911 204.159 88.9138 204.282 89.3608 204.528C89.8116 204.775 90.16 205.142 90.4062 205.631C90.6562 206.116 90.7812 206.722 90.7812 207.449V213H89.0824V207.653C89.0824 207.013 88.9176 206.517 88.5881 206.165C88.2585 205.809 87.8002 205.631 87.2131 205.631C86.8116 205.631 86.4517 205.716 86.1335 205.886C85.8191 206.057 85.571 206.307 85.3892 206.636C85.2112 206.962 85.1222 207.356 85.1222 207.818ZM95.5881 213.193C95.035 213.193 94.535 213.091 94.0881 212.886C93.6411 212.678 93.2869 212.377 93.0256 211.983C92.768 211.589 92.6392 211.106 92.6392 210.534C92.6392 210.042 92.7339 209.636 92.9233 209.318C93.1127 209 93.3684 208.748 93.6903 208.562C94.0123 208.377 94.3722 208.237 94.7699 208.142C95.1676 208.047 95.5729 207.975 95.9858 207.926C96.5085 207.866 96.9328 207.816 97.2585 207.778C97.5843 207.737 97.821 207.67 97.9688 207.58C98.1165 207.489 98.1903 207.341 98.1903 207.136V207.097C98.1903 206.6 98.0502 206.216 97.7699 205.943C97.4934 205.67 97.0805 205.534 96.5312 205.534C95.9593 205.534 95.5085 205.661 95.179 205.915C94.8532 206.165 94.6278 206.443 94.5028 206.75L92.9062 206.386C93.0956 205.856 93.3722 205.428 93.7358 205.102C94.1032 204.773 94.5256 204.534 95.0028 204.386C95.4801 204.235 95.982 204.159 96.5085 204.159C96.857 204.159 97.2263 204.201 97.6165 204.284C98.0104 204.364 98.3778 204.511 98.7188 204.727C99.0634 204.943 99.3456 205.252 99.5653 205.653C99.785 206.051 99.8949 206.568 99.8949 207.205V213H98.2358V211.807H98.1676C98.0578 212.027 97.893 212.242 97.6733 212.455C97.4536 212.667 97.1714 212.843 96.8267 212.983C96.482 213.123 96.0691 213.193 95.5881 213.193ZM95.9574 211.83C96.4271 211.83 96.8286 211.737 97.1619 211.551C97.4991 211.366 97.7547 211.123 97.929 210.824C98.107 210.521 98.196 210.197 98.196 209.852V208.727C98.1354 208.788 98.018 208.845 97.8438 208.898C97.6733 208.947 97.4782 208.991 97.2585 209.028C97.0388 209.062 96.8248 209.095 96.6165 209.125C96.4081 209.152 96.2339 209.174 96.0938 209.193C95.7642 209.235 95.4631 209.305 95.1903 209.403C94.9214 209.502 94.7055 209.644 94.5426 209.83C94.3835 210.011 94.304 210.254 94.304 210.557C94.304 210.977 94.4593 211.295 94.7699 211.511C95.0805 211.723 95.4763 211.83 95.9574 211.83Z" fill="#374151"/>
<path d="M604 203.167L603.587 209.85C603.481 211.558 603.429 212.411 603.001 213.025C602.789 213.329 602.516 213.585 602.2 213.777C601.561 214.167 600.706 214.167 598.995 214.167C597.282 214.167 596.426 214.167 595.786 213.777C595.47 213.584 595.197 213.327 594.986 213.023C594.558 212.408 594.506 211.553 594.403 209.843L594 203.167" stroke="#6B6671" stroke-linecap="round"/>
<path d="M593 203.167H605M601.704 203.167L601.249 202.228C600.946 201.604 600.795 201.292 600.534 201.098C600.477 201.055 600.415 201.016 600.351 200.983C600.063 200.833 599.716 200.833 599.023 200.833C598.313 200.833 597.957 200.833 597.664 200.989C597.599 201.024 597.537 201.064 597.478 201.109C597.214 201.311 597.067 201.634 596.772 202.281L596.369 203.167" stroke="#6B6671" stroke-linecap="round"/>
<path d="M597.333 210.5V206.5" stroke="#6B6671" stroke-linecap="round"/>
<path d="M600.667 210.5V206.5" stroke="#6B6671" stroke-linecap="round"/>
</svg>
